<?xml version="1.0" encoding="utf-8"?>
<!-- Generator: Adobe Illustrator 17.1.0, SVG Export Plug-In . SVG Version: 6.00 Build 0)  -->
<!DOCTYPE svg PUBLIC "-//W3C//DTD SVG 1.1//EN" "http://www.w3.org/Graphics/SVG/1.1/DTD/svg11.dtd">
<svg version="1.1" id="Layer_1" xmlns="http://www.w3.org/2000/svg" xmlns:xlink="http://www.w3.org/1999/xlink" x="0px" y="0px"
	 viewBox="0 0 343 243.4" enable-background="new 0 0 343 243.4" xml:space="preserve">
<g>
	<path id="j" fill="#373737" d="M0,198.7l39.8-24.1c7.7,13.6,14.7,25.1,31.4,25.1c16.1,0,26.2-6.3,26.2-30.7V2.8h48.9v166.9
		c0,50.6-29.7,73.7-73,73.7C34.2,243.4,11.5,223.2,0,198.7"/>
	<path id="s" fill="#373737" d="M172.9,193.5l39.8-23.1c10.5,17.1,24.1,29.7,48.2,29.7c20.3,0,33.2-10.1,33.2-24.1
		c0-16.8-13.3-22.7-35.6-32.5l-12.2-5.2c-35.3-15-58.7-33.9-58.7-73.7c0-36.7,27.9-64.6,71.6-64.6c31.1,0,53.4,10.8,69.5,39.1
		l-38.1,24.4c-8.4-15-17.5-21-31.4-21c-14.3,0-23.4,9.1-23.4,21c0,14.7,9.1,20.6,30,29.7l12.2,5.2c41.6,17.8,65,36,65,76.8
		c0,44-34.6,68.1-81,68.1C216.5,243.4,187.2,221.8,172.9,193.5"/>
</g>
</svg>
