<?xml version="1.0" encoding="utf-8"?>
<!-- Generator: Adobe Illustrator 17.1.0, SVG Export Plug-In . SVG Version: 6.00 Build 0)  -->
<!DOCTYPE svg PUBLIC "-//W3C//DTD SVG 1.1//EN" "http://www.w3.org/Graphics/SVG/1.1/DTD/svg11.dtd">
<svg version="1.1" id="Layer_1" xmlns="http://www.w3.org/2000/svg" xmlns:xlink="http://www.w3.org/1999/xlink" x="0px" y="0px"
	 viewBox="0 389 500 111" enable-background="new 0 389 500 111" xml:space="preserve">
<g id="Layer_1_1_" display="none">
	<path display="inline" fill="#373737" d="M661.9,735l-2.5-4.7h-1.1l-1.7-1.6H653l-2.2-3.2h-2l-1.4-1.6h-1.7l-1.6-1.6h-3.6v-22h-4.3
		l-0.9-1.6H623v-25.2h-3.8l-1.3-6.3h-4.3V664H612v-1.6h-3v-0.9l0,0v0.8h-4.7v-3.1h-1.6v2l-0.3,5.8h-3.9l-1.3,6.3h-2.4v6.3H590v3.2
		h-7.1l-1.7,3.2h2.5v6.3h-3.5l-1.4-3.2H576v-9.5h-28.4v-50.5h-11v-1.6H535v1.6h-4.7v26.8h-3.2v-41H505v-7.7h-4.7v3.2h-3.2v-14.2
		h-1.6v12.6l-3.2,3v64.8h-3.2v-25.7l-30-0.2v9.9h-4.7v3.2h-3.2v-6.3h2.2h-1.3H445v-4.7h-3.2v-6.3H439v-7.9h-2.4
		c0-9.5-13.6-9.5-13.6,1.6h-4.7l-1.6,6.3h-3v23.7h-10.9l-2,3.2h-6.1v11.7c-6.3,0.3-5.5,4.3-5.5,4.3h-7.1v3.2h-3.9l-1.6,11h-10.2v4.9
		c-6.3-15.5-26.2-13.2-26.2-13.2c9,5,12,15.1,12,15.1c-2.8-8.2-16.2-14.7-16.2-14.7h-48.6c-9,4.7-12,13.4-12,13.4
		c-1.1-6.3,6.8-13.4,6.8-13.4c-16.9,1.4-20.7,15.8-20.7,15.8h-14.8c0,0,0-7.1,0-11.4c0-4.3-4.7-4.4-4.7-4.4s-4.7-0.6-11.7-0.5
		c-4.9,0.2-4.7,3.9-4.7,3.9l-0.2,5.5l-10.4,3.9c-6.6-0.2-12.6-6.1-12.6-6.1c0.3-16.6-15.1-15-15.1-15l-4.6-4.1l-1.6-8l-3.6-0.2
		l-1.1,8.7L171,687v-29h-7l-3.5-14.2h-9.1v-23.7h-7.3l-5.8-7.6v-3.6h-2.4v3.8l-4.9,7.7h-6.3v37.5h-7.9v-22.1h-1.6v-3.3H112v3.2h-3
		v-1.1l0,0v1.1h-3.2v-1.6h-1.6v1.6H91.6v31.5h-6.9l-0.9-3.2h-1.6l-1.6,2.5l-1.6-1.9V664h-3.2v7.6l-6.3,2.5V653H59.4
		c-0.2-17,0.5-58,4.9-64.8c0,0,19.7-3.6,7.4-4.3c0,0-0.3-2.2,0.8-3.6c1.9-0.8,5.5-1.1,8.2-1.3c1.7-0.2,3.3-1.7-2.2-1.7
		c0,0,0.5-0.9,0.2-1.6c-0.3-0.6-19.2-7.4-19.2-7.4s0.9-3.2,3-3.3c1.3,0,1.7-1.4-1.1-1.4c0,0,0.5-1.1-1.1-2v-0.9c0-0.3,0-0.6,0-0.6
		s0,0.3,0,0.6v0.5c-1.6-0.2-1.7-0.3-2.7-0.5c0-0.2-0.5-0.2-0.5-0.3v-0.5c0-0.9-0.8-1.4-1.7-1.4h0.2v-16.2c0,0,0-0.9-1.6-0.9l0,0l0,0
		l0,0l0,0c-1.6,0.2-1.6,0.9-1.6,0.9v16.2h0.5c-0.9,0-2,0.3-2,1.4v0.5c0,0.2,0.3,0.2,0.3,0.3c-0.9,0.2-1.9,0.3-1.9,0.5v-0.5
		c0-0.3-0.5-0.6-0.8-0.6s-0.8,0.3-0.8,0.6v0.9c-1.6,0.9-0.9,2-0.9,2c-2.8,0.2-2.2,1.4-1.1,1.4c2,0.2,3,3.3,3,3.3s-19.1,6.9-19.4,7.4
		s0.2,1.6,0.2,1.6c-5.5,0-3.9,1.7-2.2,1.7c2.7,0.2,6.3,0.5,8.2,1.3c1.1,1.4,0.6,3.6,0.6,3.6c-12.3,0.6,7.3,4.6,7.3,4.6
		c5.5,8.5,4.6,72.4,4.6,72.4H28.7V648l-6.3-4.4v-14.2H-4.4v74.1h-4.7v-28.4H-36v17.3h-7.9v-36.3l-5.2-0.2l-7.1-6.8v-2.8H-61v3.6
		l-5.7,7.6h-4.1v25.2h-12.6v12.6h-4.7v28.9c-6.3,1.1-8.5-10.7-8.5-10.7c-0.5,8.2-6.8,13.6-6.8,13.6h-10.1l-12.3,10.4h790v-2.7H662
		L661.9,735L661.9,735z M130.2,626.1h-2c-0.6,0-1.1-0.9-1.1-1.6c0-0.6,0.5-1.6,1.1-1.6h2c0.6,0,1.1,0.9,1.1,1.6
		C131.2,625,130.7,626.1,130.2,626.1z M148.2,626.1h-2c-0.6,0-1.1-0.9-1.1-1.6c0-0.6,0.5-1.6,1.1-1.6h2c0.6,0,1.1,0.9,1.1,1.6
		C149.2,625,148.7,626.1,148.2,626.1z"/>
</g>
<path fill="#373737" d="M308,439v-9.9l-5-3.5V415h-21v58h-3v-23h-21v14h-7v-28.6l-3.7-0.2L242,430v-2h-4v2.6l-4.1,5.4H230v20h-10v10
	h-3v22.6c-5,0.8-6.6-8.4-6.6-8.4c-0.5,6.5-5.1,10.8-5.1,10.8h-8l-9.6,8h128.5l1.6-60h-10H308z"/>
<path fill="#373737" d="M500,487v-17h-3l-0.8-1H486v-20h-2.3l-1.1-5H479v-3h-1v-1h-2.8H472v-2h-2v1.2l0.5,4.8h-3.2l-1.1,5H464v5h-4
	v2h-4.8l-1.3,3h1.1v5h-1.9l-1.1-3h-3v-7h-22v-40h-9v-1h-1v1h-3v21h-3v-32h-17v-6h-4v3h-2v-11h-1v9.6l-3,2.4v51h-2v-20.4l-24-0.2v7.6
	h-3v3h-3v-5h-5v-4h-2v-5h-3v-6h-1c0-8-10.6-8-10.6,1h-3.8l-1.3,5H323v18h-8.4l-1.6,3h-5v8.9c-5,0.3-4.1,3.1-4.1,3.1H298v3h-2.8
	l-1.3,8H288c0,9,0,18.2,0,27l211.9-0.2L500,487z"/>
<path fill="#373737" d="M96,424v27h-3v-19.6l-23-0.2v7.8h-3v2h-3v-4h-5v-4h-2v-5h-3v-6h-1.3c0-8-10.6-8-10.6,1h-3.8l-1.1,5H34v18
	h-7.5l-1.6,3H20v8.9c-5,0.3-4.2,3.1-4.2,3.1H10v3H7.1l-1.3,8H0c0,9,0,18,0,27h230v-2h-1.2l-1.9-4h-0.8l-1.3-1H222l-1.7-2h-1.6
	l-1.1-2H216l-1.3-1H211v-17h-2.5l-0.8-1H198v-20h-2.5l-1.1-5H191v-3h-2v-1h-2h-4v-2h-1v1.2l0.3,4.8h-3.2l-1.1,5h-2v5h-4v2h-4.8
	l-1.3,3h1.1v5h-1.9l-1.1-3h-3v-7h-22v-40h-9v-1h-1v1h-3v21h-3v-11"/>
<rect y="485" fill="#373737" width="500" height="7"/>
<rect y="489" fill="#373737" width="500" height="12"/>
</svg>
