<?xml version="1.0" encoding="utf-8"?>
<!-- Generator: Adobe Illustrator 17.1.0, SVG Export Plug-In . SVG Version: 6.00 Build 0)  -->
<!DOCTYPE svg PUBLIC "-//W3C//DTD SVG 1.1//EN" "http://www.w3.org/Graphics/SVG/1.1/DTD/svg11.dtd">
<svg version="1.1" id="Layer_1" xmlns="http://www.w3.org/2000/svg" xmlns:xlink="http://www.w3.org/1999/xlink" x="0px" y="0px"
	 viewBox="-5.2 377.5 500.2 123.5" enable-background="new -5.2 377.5 500.2 123.5" xml:space="preserve">
<path fill="#373737" d="M493,499.5l-1.2-2.5h-0.7l-1.1-1h-2.2l-1.4-2h-1.2l-0.9-1h-1.1l-1-1H480v-14h-2.7l-0.6-1H469v-16h-2.4
	l-0.7-4H463v-2h-1v-1h-2v-1l0,0v1h-3v-2h-1v0.7l-0.2,3.3h-2.5l-0.7,4H451v4h-3v2h-4.4l-1.1,2h1.5v4h-2.1l-0.9-2h-2v-6h-18v-31h-7v-1
	h-1v1h-3v17h-2v-26h-14v-5h-3v2h-2v-9h-1v7.6l-2,1.9V463h-2v-16.7l-19-0.1v6.8h-3v2h-2v-4h1.4h-0.7H356v-3h-2v-4h-2v-5h-1.4
	c0-6-8.6-6-8.6,1h-3l-1,4h-2v14h-6.9l-1.2,2H324v7.7c-4,0.2-3.5,2.3-3.5,2.3H316v2h-2.5l-1,7H306v3.5c-4-9.8-16.5-8.3-16.5-8.3
	c5.7,3.2,7.6,9.8,7.6,9.8c-1.7-5.2-10.3-9-10.3-9h-30.7c-5.7,3-7.6,8.2-7.6,8.2c-0.7-4,4.3-8.7,4.3-8.7c-10.7,0.9-13,9.6-13,9.6H230
	c0,0,0-4.1,0-6.8s-2.8-2.7-2.8-2.7s-2.9-0.4-7.2-0.2c-3.1,0.1-2.9,2.5-2.9,2.5l-0.1,3.5l-6.6,2.4c-4.2-0.1-8-3.9-8-3.9
	c0.2-10.4-9.6-9.4-9.6-9.4l-2.9-2.4l-1-5H186l-0.6,5.3l-3.4,1.9V451h-4.3l-2.2-9H170v-15h-4.6l-3.4-4.9V420h-2v2.3l-2.8,4.7H153v24
	h-5v-14h-1v-2h-2v2h-2v-0.8l0,0v0.8h-2v-1h-1v1h-8v20h-4l-0.6-2h-1l-1.2,1.5l-1.2-1.2V455h-2v4.7l-4,1.6V448h-5.9
	c-0.1-11,0.2-36.9,3.1-41c0,0,12.4-2.2,4.7-2.7c0,0-0.2-1.4,0.5-2.2c1.2-0.5,3.5-0.7,5.2-0.7c1.1-0.1,2.1-1.1-1.4-1.1
	c0,0,0.2-0.6,0.1-1c-0.2-0.2-12.3-4.8-12.3-4.8s0.6-2,1.9-2.1c0.7,0,0.8-0.9-0.9-0.9c0,0,0.1-0.7-0.9-1.2v-0.6c0-0.2,0-0.4,0-0.4
	s0,0.2,0,0.4v0.2c-1-0.1-0.7-0.2-1.2-0.2c0-0.1,0.2-0.1,0.2-0.2v-0.2c0-0.6-0.9-1.2-1.5-1.2h0.5v-9.9c0,0,0-0.6-1-0.6l0,0l0,0l0,0
	l0,0c-1,0.1-1,0.6-1,0.6v9.9h-0.2c-0.6,0-0.8,0.6-0.8,1.3v0.2c0,0.1,0.2,0.1,0.2,0.2c-0.6,0.1-1.2,0.2-1.2,0.2v-0.2
	c0-0.2-0.2-0.4-0.5-0.4s-0.5,0.2-0.5,0.4v0.6c-1,0.6-0.8,1.2-0.8,1.2c-1.7,0.1-1.5,0.9-0.8,0.9c1.2,0.1,1.9,2.1,1.9,2.1
	s-12.2,4.3-12.3,4.8c-0.2,0.2,0.1,1,0.1,1c-3.5,0-2.5,1.1-1.4,1.1c1.7,0.1,4,0.2,5.2,0.7c0.7,0.9,0.4,2.2,0.4,2.2
	c-7.8,0.4,4.6,2.9,4.6,2.9c3.5,5.3,2.9,45.8,2.9,45.8H93v-8.2l-4-2.9V433H72v47h-3v-18H52v11h-5v-23.1l-3.5-0.1l-4.5-4.3V444h-3v2
	l-3.8,5H30v16h-8v8h-3v18.1c-4,0.7-5.5-6.8-5.5-6.8C13.3,491.5,9,495,9,495H2.6l-7.8,6H495v-1h-2V499.5z M156.8,431h-1.2
	c-0.4,0-0.7-0.6-0.7-1s0.2-1,0.7-1h1.2c0.4,0,0.7,0.6,0.7,1C157.6,430.4,157.2,431,156.8,431z M168.1,431h-1.2c-0.4,0-0.7-0.6-0.7-1
	s0.2-1,0.7-1h1.2c0.4,0,0.7,0.6,0.7,1C168.9,430.4,168.5,431,168.1,431z"/>
<rect x="-5.2" y="501" fill="#373737" width="500.2" height="1"/>
</svg>
