<?xml version="1.0" encoding="utf-8"?>
<!-- Generator: Adobe Illustrator 17.1.0, SVG Export Plug-In . SVG Version: 6.00 Build 0)  -->
<!DOCTYPE svg PUBLIC "-//W3C//DTD SVG 1.1//EN" "http://www.w3.org/Graphics/SVG/1.1/DTD/svg11.dtd">
<svg version="1.1" id="Layer_1" xmlns="http://www.w3.org/2000/svg" xmlns:xlink="http://www.w3.org/1999/xlink" x="0px" y="0px"
	 viewBox="-5.2 188 500 124" enable-background="new -5.2 188 500 124" xml:space="preserve">
<path fill="#373737" d="M493.4,310.5l-1.6-3h-0.7l-1.1-1h-2.2l-1.4-2h-1.2l-0.9-1h-1.1l-1-1h-2.2v-14h-2.7l-0.6-1h-7.7v-16h-2.4
	l-0.7-4H463v-2h-1v-1h-2V264l0,0v0.5h-3v-2h-1v1.2l-0.2,3.7h-2.5l-0.7,4h-1.5v4h-3v2h-4.5l-1.1,2h1.6v4h-2.2l-0.9-2h-1.9v-6h-18
	v-31.9h-7v-1h-1v1h-3v17h-2v-26h-13.9v-5h-3v2h-2v-8.9h-1v8l-2,1.9v41H384v-16.2l-19-0.1v6.3h-3v2h-2v-4h1.4h-0.7H356v-3h-1.9v-4h-2
	v-5h-1.5c0-6-8.6-6-8.6,1h-3l-1,4h-1.9v14.9h-7l-1.2,2h-3.9v7.3c-4,0.2-3.5,2.7-3.5,2.7h-4.5v2h-2.5l-1,7h-6.5v3.1
	c-4-9.8-16.5-8.3-16.5-8.3c5.7,3.2,7.6,9.6,7.6,9.6c-1.7-5.2-10.3-9.3-10.3-9.3h-30.7c-5.7,3-7.6,8.4-7.6,8.4
	c-0.7-4,4.3-8.4,4.3-8.4c-10.7,0.9-13,9.9-13,9.9h-9.4c0,0,0-4.5,0-7.2s-3-2.7-3-2.7s-3-0.4-7.3-0.2c-3.1,0.1-3,2.5-3,2.5l-0.1,3.5
	l-6.6,2.4c-4.2-0.1-8-3.9-8-3.9c0.2-10.4-9.6-9.4-9.6-9.4l-2.9-2.6l-1-5.1h-2.9l-0.7,5.5l-3.4,2v-18.5h-4.2l-2.2-8.9H170v-14.9h-4.6
	l-3.7-4.8v-2.2h-1.4v2.4l-3.1,4.8h-4v23.7h-5v-13.9h-1v-2h-2v2h-2v-0.7l0,0v0.7h-2v-1h-1v1h-8v20H128l-0.6-2h-1l-1,1.6l-1-1.2v-0.4
	h-2v4.8l-4,1.6v-13.4h-6.3c-0.1-10.8,0.2-36.8,3.1-41c0,0,12.4-2.2,4.7-2.7c0,0-0.2-1.4,0.5-2.2c1.2-0.5,3.5-0.7,5.2-0.7
	c1.1-0.1,2.1-1.1-1.4-1.1c0,0,0.2-0.6,0.1-1c-0.2-0.2-12.3-4.8-12.3-4.8s0.6-2,1.9-2.1c0.7,0,1.1-0.9-0.7-0.9c0,0,0.2-0.7-0.7-1.2
	v-0.6c0-0.2,0-0.4,0-0.4s0,0.2,0,0.4v0.2c-1-0.1-1.1-0.2-1.7-0.2c0-0.1-0.2-0.1-0.2-0.2v-0.2c0-0.6-0.5-0.9-1.1-0.9h0.1v-10.2
	c0,0,0-0.6-1-0.6l0,0l0,0l0,0l0,0c-1,0.1-1,0.6-1,0.6v10.3h0.2c-0.6,0-1.2,0.2-1.2,0.9v0.2c0,0.1,0.2,0.1,0.2,0.2
	c-0.6,0.1-1.2,0.2-1.2,0.2v-0.2c0-0.2-0.2-0.4-0.5-0.4s-0.5,0.2-0.5,0.4v0.6c-1,0.6-0.6,1.2-0.6,1.2c-1.7,0.1-1.4,0.9-0.7,0.9
	c1.2,0.1,1.9,2.1,1.9,2.1s-12.2,4.3-12.3,4.8c-0.2,0.2,0.1,1,0.1,1c-3.5,0-2.5,1.1-1.4,1.1c1.7,0.1,4,0.2,5.2,0.7
	c0.7,0.9,0.4,2.2,0.4,2.2c-7.8,0.4,4.6,2.9,4.6,2.9c3.5,5.3,2.9,45.8,2.9,45.8H92.6v-8.2l-4-2.9v-8.9h-17v47h-3v-18H51.7v10.9h-5
	v-23l-3.4-0.1l-4.5-4.3v-1.7h-3.1v2.2l-3.5,4.8h-2.6v16h-8v8h-3v18.3c-4,0.7-5.3-6.8-5.3-6.8c-0.2,5.2-4.3,8.6-4.3,8.6H2.6l-7.8,6.5
	h500v-1.6h-1.4V310.5z M156.8,241.7h-1.2c-0.4,0-0.7-0.6-0.7-1c0-0.4,0.2-1,0.7-1h1.2c0.4,0,0.7,0.6,0.7,1
	C157.6,241.1,157.2,241.7,156.8,241.7z M168.1,241.7h-1.2c-0.4,0-0.7-0.6-0.7-1c0-0.4,0.2-1,0.7-1h1.2c0.4,0,0.7,0.6,0.7,1
	C168.9,241.1,168.5,241.7,168.1,241.7z"/>
</svg>
