<?xml version="1.0" encoding="utf-8"?>
<!-- Generator: Adobe Illustrator 17.1.0, SVG Export Plug-In . SVG Version: 6.00 Build 0)  -->
<!DOCTYPE svg PUBLIC "-//W3C//DTD SVG 1.1//EN" "http://www.w3.org/Graphics/SVG/1.1/DTD/svg11.dtd">
<svg version="1.1" id="Layer_1" xmlns="http://www.w3.org/2000/svg" xmlns:xlink="http://www.w3.org/1999/xlink" x="0px" y="0px" width="309" height="50"
	 viewBox="0 210 500 81" enable-background="new 0 210 500 81" xml:space="preserve">
<g id="Layer_1_1_" display="none">
	<path display="inline" fill="#373737" d="M661.9,929.5l-2.5-4.7h-1.1l-1.7-1.6H653l-2.2-3.2h-2l-1.4-1.6h-1.7l-1.6-1.6h-3.6v-22
		h-4.3l-0.9-1.6H623V868h-3.8l-1.3-6.3h-4.3v-3.2H612v-1.6h-3V856l0,0v0.8h-4.7v-3.1h-1.6v2l-0.3,5.8h-3.9l-1.3,6.3h-2.4v6.3H590
		v3.2h-7.1l-1.7,3.2h2.5v6.3h-3.5l-1.4-3.2H576v-9.5h-28.4v-50.5h-11V822H535v1.6h-4.7v26.8h-3.2v-41H505v-7.7h-4.7v3.2h-3.2v-14.2
		h-1.6v12.6l-3.2,3v64.8h-3.2v-25.7l-30-0.2v9.9h-4.7v3.2h-3.2V852h2.2h-1.3H445v-4.7h-3.2V841H439v-7.9h-2.4
		c0-9.5-13.6-9.5-13.6,1.6h-4.7l-1.6,6.3h-3v23.7h-10.9l-2,3.2h-6.1v11.7c-6.3,0.3-5.5,4.3-5.5,4.3h-7.1v3.2h-3.9l-1.6,11h-10.2v4.9
		c-6.3-15.5-26.2-13.2-26.2-13.2c9,5,12,15.1,12,15.1c-2.8-8.2-16.2-14.7-16.2-14.7h-48.6c-9,4.7-12,13.4-12,13.4
		c-1.1-6.3,6.8-13.4,6.8-13.4c-16.9,1.4-20.7,15.8-20.7,15.8h-14.8c0,0,0-7.1,0-11.4c0-4.3-4.7-4.4-4.7-4.4s-4.7-0.6-11.7-0.5
		c-4.9,0.2-4.7,3.9-4.7,3.9l-0.2,5.5L215,903c-6.6-0.2-12.6-6.1-12.6-6.1c0.3-16.6-15.1-15-15.1-15l-4.6-4.1l-1.6-8l-3.6-0.2
		l-1.1,8.7l-5.4,3.2v-29h-7l-3.5-14.2h-9.1v-23.7h-7.3l-5.8-7.6v-3.6h-2.4v3.8l-4.9,7.7h-6.3v37.5h-7.9v-22.1h-1.6V827H112v3.2h-3
		v-1.1l0,0v1.1h-3.2v-1.6h-1.6v1.6H91.6v31.5h-6.9l-0.9-3.2h-1.6l-1.6,2.5l-1.6-1.9v-0.6h-3.2v7.6l-6.3,2.5v-21.1H59.4
		c-0.2-17,0.5-58,4.9-64.8c0,0,19.7-3.6,7.4-4.3c0,0-0.3-2.2,0.8-3.6c1.9-0.8,5.5-1.1,8.2-1.3c1.7-0.2,3.3-1.7-2.2-1.7
		c0,0,0.5-0.9,0.2-1.6c-0.3-0.6-19.2-7.4-19.2-7.4s0.9-3.2,3-3.3c1.3,0,1.7-1.4-1.1-1.4c0,0,0.5-1.1-1.1-2v-0.9c0-0.3,0-0.6,0-0.6
		s0,0.3,0,0.6v0.5c-1.6-0.2-1.7-0.3-2.7-0.5c0-0.2-0.5-0.2-0.5-0.3v-0.5c0-0.9-0.8-1.4-1.7-1.4h0.2v-16.2c0,0,0-0.9-1.6-0.9l0,0l0,0
		l0,0l0,0c-1.6,0.2-1.6,0.9-1.6,0.9V753h0.5c-0.9,0-2,0.3-2,1.4v0.5c0,0.2,0.3,0.2,0.3,0.3c-0.9,0.2-1.9,0.3-1.9,0.5v-0.5
		c0-0.3-0.5-0.6-0.8-0.6s-0.8,0.3-0.8,0.6v0.9c-1.6,0.9-0.9,2-0.9,2c-2.8,0.2-2.2,1.4-1.1,1.4c2,0.2,3,3.3,3,3.3s-19.1,6.9-19.4,7.4
		s0.2,1.6,0.2,1.6c-5.5,0-3.9,1.7-2.2,1.7c2.7,0.2,6.3,0.5,8.2,1.3c1.1,1.4,0.6,3.6,0.6,3.6c-12.3,0.6,7.3,4.6,7.3,4.6
		c5.5,8.5,4.6,72.4,4.6,72.4H28.7v-12.9l-6.3-4.4v-14.2H-4.4V898h-4.7v-28.4H-36v17.3h-7.9v-36.3l-5.2-0.2l-7.1-6.8v-2.8H-61v3.6
		l-5.7,7.6h-4.1v25.2h-12.6v12.6h-4.7v28.9c-6.3,1.1-8.5-10.7-8.5-10.7c-0.5,8.2-6.8,13.6-6.8,13.6h-10.1l-12.3,10.4h790v-2.7H662
		L661.9,929.5L661.9,929.5z M130.2,820.6h-2c-0.6,0-1.1-0.9-1.1-1.6c0-0.6,0.5-1.6,1.1-1.6h2c0.6,0,1.1,0.9,1.1,1.6
		C131.2,819.5,130.7,820.6,130.2,820.6z M148.2,820.6h-2c-0.6,0-1.1-0.9-1.1-1.6c0-0.6,0.5-1.6,1.1-1.6h2c0.6,0,1.1,0.9,1.1,1.6
		C149.2,819.5,148.7,820.6,148.2,820.6z"/>
</g>
<path fill="#373737" d="M308,236v-4.4l-5,0.5v-5.6l-21,6V265h-3v-23h-21v14h-7v-23.1l-3.7-0.2l-5.3-4.2V226h-4v2.1l-4.1,4.9H230v15
	h-10v10h-3v22.1c-5,0.8-6.6-8.1-6.6-8.1c-0.5,6.5-5.1,11-5.1,11h-8l-9.6,8h128.5l1.6-55h-10H308z"/>
<path fill="#373737" d="M500,276.5V260h-3l-0.8-1H486v-20h-2.3l-1.1-5H479v-3h-1v-1h-2.8H472v-2h-2v0.7l0.1,5.3h-2.8l-1.1,5H464v5
	h-4v2h-4.8l-1.3,3h1.1v5h-1.9l-1.1-3h-3v-7h-22v-20h-9v-1h-1v1h-3v11h-3v-17h-17v-6h-4v3h-2v-5h-1v5.1l-3,0.4V242h-2v-15.9l-24-0.2
	v8.1h-3v3h-3v-5h-5v-4h-2v-5h-3v-6h-1c0-8-10.6-8-10.6,1h-3.8l-1.3,5H323v13h-8.4l-1.6,3h-5v8.4c-5,0.3-4.1,3.6-4.1,3.6H298v3h-2.8
	l-1.3,8H288c0,9,0,17.7,0,26.5l211.9-0.2L500,276.5z"/>
<path fill="#373737" d="M96,229v12h-3v-10.1l-23-0.2v3.3h-3v2h-3v1h-5v-4h-2v1l-3-1v-5l-1.3-1c0-8-10.6-8-10.6,1l-3.8,1l-1.1,4H34v3
	h-7.5l-1.6,3H20v8.4c-5,0.3-4.2,3.6-4.2,3.6H10v3H7.1l-1.3,8H0c0,9,0,18,0,27h230v-2h-1.2l-1.9-4h-0.8l-1.3-1H222l-1.7-2h-1.6
	l-1.1-2H216l-1.3-1H211v-17h-2.5l-0.8-1H198v-20h-2.5l-1.1-5H191v-3h-2v-1h-2h-4v-2h-1v0.7l0.3,5.3h-3.2l-1.1,5h-2v5h-4v2h-4.8
	l-1.3,3h1.1v5h-1.9l-1.1-3h-3v-7h-22v-18h-9v-3h-1v3h-3v9h-3v-7"/>
<rect y="275" fill="#373737" width="500" height="7"/>
<rect y="279" fill="#373737" width="500" height="12"/>
<path fill="#373737" d="M123,218.5"/>
<path fill="#373737" d="M123,224.5"/>
<path fill="#373737" d="M96,240.5"/>
<path fill="#373737" d="M96,218.5"/>
</svg>
