<?xml version="1.0" encoding="utf-8"?>
<!-- Generator: Adobe Illustrator 17.1.0, SVG Export Plug-In . SVG Version: 6.00 Build 0)  -->
<!DOCTYPE svg PUBLIC "-//W3C//DTD SVG 1.1//EN" "http://www.w3.org/Graphics/SVG/1.1/DTD/svg11.dtd">
<svg version="1.1" id="Layer_1" xmlns="http://www.w3.org/2000/svg" xmlns:xlink="http://www.w3.org/1999/xlink" x="0px" y="0px"
	 viewBox="0 186.8 500 110.5" enable-background="new 0 186.8 500 110.5" xml:space="preserve">
<g id="Layer_1_1_" display="none">
	<path display="inline" fill="#373737" d="M661.9,345.7l-2.5-4.7h-1.1l-1.7-1.6h-3.6l-2.2-3.2h-2l-1.4-1.6h-1.7l-1.6-1.6h-3.6V311
		h-4.3l-0.9-1.6H623v-25.2h-3.8l-1.3-6.3h-4.3v-3.2h-1.6v-1.6H609v-0.8l0,0v0.8h-4.7V270h-1.6v2l-0.3,5.8h-3.9l-1.3,6.3h-2.4v6.3
		H590v3.2h-7.1l-1.7,3.2h2.5v6.3h-3.5l-1.4-3.2H576v-9.5h-28.4v-50.5h-11v-1.6H535v1.6h-4.7v26.8h-3.2v-41H505V218h-4.7v3.2h-3.2
		V207h-1.6v12.6l-3.2,3v64.8h-3.2v-25.7l-30-0.2v9.9h-4.7v3.2h-3.2v-6.3h2.2h-1.3h-7.1v-4.7h-3.2v-6.3H439v-7.9h-2.4
		c0-9.5-13.6-9.5-13.6,1.6h-4.7l-1.6,6.3h-3v23.7h-10.9l-2,3.2h-6.1v11.7c-6.3,0.3-5.5,4.3-5.5,4.3h-7.1v3.2h-3.9l-1.6,11h-10.2v4.9
		c-6.3-15.5-26.2-13.2-26.2-13.2c9,5,12,15.1,12,15.1c-2.8-8.2-16.2-14.7-16.2-14.7h-48.6c-9,4.7-12,13.4-12,13.4
		c-1.1-6.3,6.8-13.4,6.8-13.4c-16.9,1.4-20.7,15.8-20.7,15.8h-14.8c0,0,0-7.1,0-11.4s-4.7-4.4-4.7-4.4s-4.7-0.6-11.7-0.5
		c-4.9,0.2-4.7,3.9-4.7,3.9l-0.2,5.5l-10.4,3.8c-6.6-0.2-12.6-6.1-12.6-6.1c0.3-16.6-15.1-15-15.1-15l-4.6-4.1l-1.6-8l-3.6-0.2
		l-1.1,8.7l-5.4,3.2v-29H164l-3.5-14.2h-9.1v-23.7h-7.3l-5.8-7.6v-3.6h-2.4v3.8l-4.9,7.7h-6.3v37.5h-7.9v-22.1h-1.6v-3.2h-3.2v3.2
		H109v-1.1l0,0v1.1h-3.2v-1.6h-1.6v1.6H91.6v31.5h-6.9l-0.9-3.2h-1.6l-1.6,2.5l-1.6-1.9v-0.6h-3.2v7.6l-6.3,2.5v-21.1H59.4
		c-0.2-17,0.5-58,4.9-64.8c0,0,19.7-3.6,7.4-4.3c0,0-0.3-2.2,0.8-3.6c1.9-0.8,5.5-1.1,8.2-1.3c1.7-0.2,3.3-1.7-2.2-1.7
		c0,0,0.5-0.9,0.2-1.6c-0.3-0.6-19.2-7.4-19.2-7.4s0.9-3.2,3-3.3c1.3,0,1.7-1.4-1.1-1.4c0,0,0.5-1.1-1.1-2v-0.9c0-0.3,0-0.6,0-0.6
		s0,0.3,0,0.6v0.5c-1.6-0.2-1.7-0.3-2.7-0.5c0-0.2-0.5-0.2-0.5-0.3v-0.5c0-0.9-0.8-1.4-1.7-1.4h0.2v-16.2c0,0,0-0.9-1.6-0.9l0,0l0,0
		l0,0l0,0c-1.6,0.2-1.6,0.9-1.6,0.9v16.2h0.5c-0.9,0-2,0.3-2,1.4v0.5c0,0.2,0.3,0.2,0.3,0.3c-0.9,0.2-1.9,0.3-1.9,0.5v-0.5
		c0-0.3-0.5-0.6-0.8-0.6c-0.3,0-0.8,0.3-0.8,0.6v0.9c-1.6,0.9-0.9,2-0.9,2c-2.8,0.2-2.2,1.4-1.1,1.4c2,0.2,3,3.3,3,3.3
		s-19.1,6.9-19.4,7.4s0.2,1.6,0.2,1.6c-5.5,0-3.9,1.7-2.2,1.7c2.7,0.2,6.3,0.5,8.2,1.3c1.1,1.4,0.6,3.6,0.6,3.6
		c-12.3,0.6,7.3,4.6,7.3,4.6c5.5,8.5,4.6,72.4,4.6,72.4H28.7v-12.9l-6.3-4.4v-14.2H-4.4v74.1h-4.7v-28.4H-36v17.3h-7.9v-36.3
		l-5.2-0.2l-7.1-6.8v-2.8H-61v3.6l-5.7,7.6h-4.1v25.2h-12.6v12.6h-4.7V335c-6.3,1.1-8.5-10.7-8.5-10.7c-0.5,8.2-6.8,13.6-6.8,13.6
		h-10.1l-12.3,10.4h790v-2.7h-2.2V345.7z M130.2,236.9h-2c-0.6,0-1.1-0.9-1.1-1.6c0-0.6,0.5-1.6,1.1-1.6h2c0.6,0,1.1,0.9,1.1,1.6
		C131.2,235.8,130.7,236.9,130.2,236.9z M148.2,236.9h-2c-0.6,0-1.1-0.9-1.1-1.6c0-0.6,0.5-1.6,1.1-1.6h2c0.6,0,1.1,0.9,1.1,1.6
		C149.2,235.8,148.7,236.9,148.2,236.9z"/>
</g>
<path fill="#373737" d="M307.9,237.4v-9.9L303,224v-11h-20.8v57.9h-3.6v-22.4h-21V262h-6.1v-28.2l-3.9-0.2l-5.5-5.2v-2.2h-3.8v2.8
	l-4.4,5.8h-3.6v19.9h-9.8v9.8h-3.6V287c-4.9,0.8-6.5-8.5-6.5-8.5c-0.5,6.5-5,10.6-5,10.6h-8l-9.6,8.2h128.5l1.6-59.9H307.9z"/>
<path fill="#373737" d="M500,285.2V268h-3l-0.8-1.3h-9.8V247h-2.7l-1.1-4.9h-3.8v-2.5h-1.1v-1.3h-2.5h-3.6v-2.5h-1.3v1.6l0.2,4.6
	h-3.2l-1.1,4.9H464v4.9h-3.6v2.5h-5.2l-1.3,2.5h1.6v4.9h-2.4l-1.1-2.5h-2.7v-7.4h-22.1v-39.4h-8.7V211h-1.3v1.3h-3.6v21h-2.5v-31.7
	h-17v-6.1h-3.6v2.4H388v-11h-1.3v9.9l-2.5,2.4v50.6h-2.5v-20l-23.3-0.2v7.7h-3.6v2.5h-2.5v-4.9h-4.9v-3.6h-2.5v-5h-2.5V220h-1.4
	c0-7.4-10.6-7.4-10.6,1.3h-3.8l-1.3,4.9h-2.7v18.4h-8l-1.6,2.5h-5.2v9c-4.9,0.3-3.9,3.3-3.9,3.3h-6v2.5h-2.7l-1.3,8.7h-5.8
	c0,8.8,0,17.8,0,26.6l211.8-0.2L500,285.2z"/>
<path fill="#373737" d="M96,222.1v27.4h-2.5v-19.9l-23.3-0.2v7.7h-3.6v2.5H64v-4.9h-4.9v-3.6h-2.5v-5h-2.5v-6.1h-1.4
	c0-7.4-10.6-7.4-10.6,1.3h-3.8l-1.1,4.9h-2.7v18.4h-8l-1.6,2.5h-5.2v9c-4.9,0.3-3.9,3.2-3.9,3.2h-6v2.5H7.1l-1.3,8.7H0
	c0,8.8,0,17.7,0,26.6h230.1v-2h-1.3l-1.9-3.6h-0.8l-1.3-1.3H222l-1.7-2.5h-1.6l-1.1-1.3H216l-1.3-1.3h-3.2V268h-3l-0.8-1.3H198V247
	h-2.5l-1.1-4.9h-3.6v-2.5h-1.3v-1.3H187h-3.6v-2.5h-1.3v1.6l0.2,4.6h-3.2l-1.1,4.9h-2.2v4.9h-3.6v2.5h-5l-1.3,2.5h1.6v4.9h-2.4
	l-1.1-2.5h-2.7v-7.4h-22.1v-39.4h-8.7v-1.3h-1.3v1.3h-3.6v21H123v-11.5"/>
<rect y="290.2" fill="#373737" width="499.8" height="6.9"/>
</svg>
