<?xml version="1.0" encoding="utf-8"?>
<!-- Generator: Adobe Illustrator 17.1.0, SVG Export Plug-In . SVG Version: 6.00 Build 0)  -->
<!DOCTYPE svg PUBLIC "-//W3C//DTD SVG 1.1//EN" "http://www.w3.org/Graphics/SVG/1.1/DTD/svg11.dtd">
<svg version="1.1" id="Layer_1" xmlns="http://www.w3.org/2000/svg" xmlns:xlink="http://www.w3.org/1999/xlink" x="0px" y="0px"
	 viewBox="49 164 402.1 100" enable-background="new 49 164 402.1 100" xml:space="preserve" width="402" height="100">
<path fill="#373737"  d="M449.4,262l-1-2h-0.6l-0.9-0.8h-1.8l-1.1-1.6h-1l-0.7-0.8h-0.9l-0.8-0.8H439v-11.3h-2.2l-0.5-0.8h-6.2v-12.9
	h-1.9l-0.6-3.2h-2.3v-1.6h-0.8v-0.8h-1.6v-0.8l0,0v0.8h-2.4v-1.6h-0.8v0.6l-0.2,2.7h-2l-0.6,3.2h-1.3v3.2h-2.4v1.6h-3.5l-0.9,1.6
	h1.2v3.2h-1.7l-0.7-1.6H406v-4.8h-14.5v-24.9h-5.6v-0.8h-0.8v0.8h-2.4v13.7h-1.6v-20.9h-11.3v-4h-2.4v1.6h-1.6v-7.2H365v6.1
	l-1.6,1.5v33.4h-1.6v-13.4l-15.3-0.1v5.5h-2.4v1.6h-1.6v-3.2h1.1h-0.6h-3.8v-2.4h-1.6v-3.2h-1.6v-4H335c0-4.8-6.9-4.8-6.9,0.8h-2.4
	l-0.8,3.2h-1.6v11.3h-5.5l-1,1.6h-3.1v6.2c-3.2,0.2-2.8,1.8-2.8,1.8h-3.6v1.6h-2l-0.8,5.6h-5.2v2.8c-3.2-7.9-13.3-6.7-13.3-6.7
	c4.6,2.6,6.1,7.9,6.1,7.9c-1.4-4.2-8.3-7.2-8.3-7.2H259c-4.6,2.4-6.1,6.6-6.1,6.6c-0.6-3.2,3.5-7,3.5-7c-8.6,0.7-10.5,7.7-10.5,7.7
	H238c0,0,0-3.3,0-5.5c0-2.2-2.3-2.2-2.3-2.2s-2.3-0.3-5.8-0.2c-2.5,0.1-2.3,2-2.3,2l-0.1,2.8l-5.3,1.9c-3.4-0.1-6.4-3.1-6.4-3.1
	c0.2-8.4-7.7-7.6-7.7-7.6l-2.3-1.9l-0.8-4h-2.3l-0.5,4.3l-2.7,1.5v-14.7H196l-1.8-7.2h-4.4v-12.1h-3.7l-2.7-3.9v-1.7h-1.6v1.8
	l-2.3,3.8h-3.4v19.3h-4v-11.3h-0.8v-1.6h-1.6v1.6h-1.6v-0.6l0,0v0.6h-1.6V211h-0.8v0.8h-6.4v16.1H156l-0.5-1.6h-0.8l-1,1.2l-1-1
	v-0.2h-1.6v3.8l-3.2,1.3v-10.7h-4.7c-0.1-8.8,0.2-29.7,2.5-33c0,0,10-1.8,3.8-2.2c0,0-0.2-1.1,0.4-1.8c1-0.4,2.8-0.6,4.2-0.6
	c0.9-0.1,1.7-0.9-1.1-0.9c0,0,0.2-0.5,0.1-0.8c-0.2-0.2-9.9-3.9-9.9-3.9s0.5-1.6,1.5-1.7c0.6,0,0.6-0.7-0.7-0.7c0,0,0.1-0.6-0.7-1
	v-0.5c0-0.2,0-0.3,0-0.3s0,0.2,0,0.3v0.2c-0.8-0.1-0.6-0.2-1-0.2c0-0.1,0.2-0.1,0.2-0.2v-0.2c0-0.5-0.7-1-1.2-1h0.4v-8
	c0,0,0-0.5-0.8-0.5l0,0l0,0l0,0l0,0c-0.8,0.1-0.8,0.5-0.8,0.5v8h-0.2c-0.5,0-0.6,0.5-0.6,1v0.2c0,0.1,0.2,0.1,0.2,0.2
	c-0.5,0.1-1,0.2-1,0.2v-0.2c0-0.2-0.2-0.3-0.4-0.3c-0.2,0-0.4,0.2-0.4,0.3v0.5c-0.8,0.5-0.6,1-0.6,1c-1.4,0.1-1.2,0.7-0.6,0.7
	c1,0.1,1.5,1.7,1.5,1.7s-9.8,3.5-9.9,3.9c-0.2,0.2,0.1,0.8,0.1,0.8c-2.8,0-2,0.9-1.1,0.9c1.4,0.1,3.2,0.2,4.2,0.6
	c0.6,0.7,0.3,1.8,0.3,1.8c-6.3,0.3,3.7,2.3,3.7,2.3c2.8,4.3,2.3,36.8,2.3,36.8h-9.6v-6.6l-3.2-2.3v-7.2H111v37.8h-2.4v-14.5H94.9
	v8.8h-4v-18.6l-2.8-0.1l-3.6-3.5v-1.2h-2.4v1.6l-3.1,4h-1.8v12.9h-6.4v6.4h-2.4v14.5c-3.2,0.6-4.4-5.5-4.4-5.5c-0.2,4.2-3.6,7-3.6,7
	h-5.1l-6.3,4.8H451v-0.8h-1.6V262z M179.2,207h-1c-0.3,0-0.6-0.5-0.6-0.8c0-0.3,0.2-0.8,0.6-0.8h1c0.3,0,0.6,0.5,0.6,0.8
	C179.8,206.5,179.5,207,179.2,207z M188.3,207h-1c-0.3,0-0.6-0.5-0.6-0.8c0-0.3,0.2-0.8,0.6-0.8h1c0.3,0,0.6,0.5,0.6,0.8
	C188.9,206.5,188.6,207,188.3,207z"/>
<rect x="49" y="263.2" fill="#373737" width="402.1" height="0.8"/>
</svg>
