<svg xmlns="http://www.w3.org/2000/svg" width="300" height="300" viewBox="0 0 300 300"><path d="M276.142 22.237h1.739c2.144 0 3.9-.711 3.9-2.591 0-1.414-1.037-2.723-3.76-2.723-.852 0-1.432 0-1.88.062v5.252zm0 9.134h-2.916v-16.196c1.353-.193 2.715-.457 4.857-.457 2.591 0 4.207.527 5.243 1.309.905.711 1.423 1.8 1.423 3.364 0 2.073-1.361 3.425-3.1 3.882v.123c1.414.264 2.318 1.555 2.644 3.961.387 2.529.711 3.487.975 4.014h-2.978c-.387-.527-.72-2.011-1.045-4.137-.316-1.958-1.414-2.731-3.426-2.731h-1.678v6.868zm2.653-20.535c-6.412 0-11.594 5.375-11.594 12.112s5.182 12.112 11.655 12.112c6.411.07 11.532-5.375 11.532-12.112s-5.121-12.112-11.532-12.112h-.061zm.061-2.459c8.019 0 14.431 6.482 14.431 14.51 0 8.16-6.412 14.633-14.492 14.633-8.09 0-14.633-6.473-14.633-14.633 0-8.028 6.543-14.51 14.633-14.51h.061zm-207.915 259.734l-2.433-14.412c-.694-4.154-1.581-10.646-2.257-15.143h-.264c-.711 4.531-1.704 11.207-2.433 15.178l-2.618 14.377h10.005zm-11.312 9.391l-3.162 15.994h-11.681l14.571-66.541h14.316l13.236 66.541h-11.742l-3.092-15.994h-12.446zm53.867-13.729c0-.887 0-1.924-.176-2.873-.465-3.285-2.213-6.244-5.024-6.244-4.822 0-6.596 6.947-6.596 15.072 0 9.336 2.529 14.65 6.429 14.65 1.783 0 3.838-.914 4.954-4.832.272-.781.413-1.826.413-3.047v-12.726zm11.989-38.584v54.508c0 4.32.22 9.635.396 13.789h-10.355l-.676-5.543h-.246c-1.739 3.418-5.524 6.324-10.048 6.324-9.916 0-14.834-10.943-14.834-24.76 0-16.836 7.333-25.023 15.326-25.023 4.181 0 6.886 2.047 8.248 5.008h.202v-24.303h11.987zm24.97 59.883c4.576 0 5.709-8.625 5.709-15.766 0-6.789-1.133-15.635-5.91-15.635-5.06 0-6.123 8.846-6.123 15.635 0 8.195 1.335 15.766 6.218 15.766h.106zm-.228 9.196c-11.049 0-17.979-8.871-17.979-24.75 0-17.33 8.897-25.033 18.26-25.033 10.9 0 17.733 9.303 17.733 24.752 0 19.85-10.706 25.031-17.917 25.031h-.097zm36.705-17.997c0 1.203.22 2.328.475 3.082 1.203 4.033 3.241 5.025 4.874 5.025 4.638 0 6.509-5.877 6.509-15.275 0-8.555-1.977-14.447-6.562-14.447-2.274 0-4.189 2.469-4.848 5.121-.229.834-.448 2.133-.448 3.029v13.465zm-11.99-51.082h11.989v25.119h.193c2.362-3.707 5.507-5.824 10.074-5.824 9.038 0 13.579 10.277 13.579 23.715 0 16.979-6.772 26.068-15.547 26.068-4.181 0-6.965-1.854-9.477-6.551h-.253l-.667 5.77h-10.294c.176-3.996.403-9.469.403-13.789v-54.508zm64.566 39.594c.062-6.771-1.924-11.516-5.727-11.516-4.339 0-6.184 6.352-6.315 11.516h12.042zm-12.086 8.477c.141 8.721 4.726 11.559 10.417 11.559 3.609 0 6.701-.801 8.985-1.66l1.616 8.625c-3.18 1.369-8.09 2.23-12.798 2.23-12.867 0-19.894-8.793-19.894-23.811 0-16.117 8.151-25.797 18.796-25.797 10.285 0 15.985 8.555 15.985 22.52 0 3.197-.132 4.998-.343 6.402l-22.764-.068z"/><path fill="#ED1C24" d="M173.845 7.771h76.694v183.612zm-54.034 0h-76.738v183.612zm27.026 67.656l48.86 115.946h-32.014l-14.616-36.932h-35.773z"/></svg>