<svg xmlns="http://www.w3.org/2000/svg" viewBox="0 0 200 49.5" enable-background="new 0 0 200 49.5"><path d="M114 42.5v-38.2h4.1v38.3h-4.1zm20.5.5c-6.7 0-11.1-5.1-11.1-11.4s4.4-11.4 11.1-11.4c6.7 0 11.1 5.1 11.1 11.4s-4.4 11.4-11.1 11.4zm0-19.5c-4.2 0-7 3.2-7 8s2.8 8 7 8 7-3.2 7-8c0-4.7-2.8-8-7-8zm27.1 19.5c-6.9 0-11.8-5-11.8-11.3s4.9-11.5 11.8-11.5c2.7 0 5.5 1 7.5 2.2l-1.7 3.1c-1.8-1-3.9-1.8-6.2-1.8-4.3 0-7.5 2.9-7.5 7.9 0 4.7 3.8 7.7 7.8 7.7 2.2 0 4.4-.8 6.2-1.8l1.4 3.1c-2 1.4-4.8 2.4-7.5 2.4zm24.8-.5v-2.3c-1.8 1.7-4.1 2.7-6.8 2.7-4.3 0-7.9-2.6-7.9-7 0-4 3.4-6.8 7.9-6.8 3 0 4.8.7 6.6 1.5v-1.3c0-3.7-1.7-5.4-5.7-5.4-2.1 0-4.2.5-5.7 1.1l-.7-3.5c2-.6 4.8-1.1 6.9-1.1 6.3 0 9.2 3 9.2 9.3v13h-3.8zm-.2-8.5c-2.2-1.2-3.5-1.8-6-1.8-2.8 0-4.6 1.3-4.6 3.7 0 2.4 1.8 3.8 5.1 3.8 2.3 0 4.2-1.1 5.5-2.7v-3zm9.7 8.5v-38.2h4.1v38.3h-4.1zm-192.2 7h-3.7l12.5-49.5h3.7l-12.5 49.5zm91.9 0h-3.7l12.5-49.5h3.7l-12.5 49.5zm-60.1-7v-2.2c-1.7 1.8-4.2 2.7-7 2.7-6.3 0-10.7-4.6-10.7-11.2 0-6.4 5-11.6 10.8-11.6 2.9 0 5 .8 6.7 2.2v-18.1h4.1v38.3h-3.9zm-.2-15.9c-1.4-1.7-3.5-3-6.4-3-4.1 0-7 3.3-7 8 0 4.4 2.7 7.8 7.3 7.8 2.7 0 4.6-1.1 6.1-2.9v-9.9zm29.2 6.2h-16.1c.5 3.8 2.6 6.6 8.2 6.6 1.8 0 4-.5 6.1-1.2l.7 3.5c-2.5.7-5.1 1.3-7.2 1.3-7.9 0-11.8-5-11.8-11.3 0-6 3.9-11.5 10.6-11.5 6.2 0 9.6 4.6 9.6 10.5.1.8.1 1.3-.1 2.1zm-3.6-3.1c-.3-3.4-2.2-6.1-6.1-6.1-3.5 0-5.7 2.3-6.2 6.1h12.3zm17.1 13.4h-.7l-10.7-22.5h4.6l6.6 15.4 6.6-15.3h4.4l-10.8 22.4z" fill="#1D4D82"/></svg>