<svg xmlns="http://www.w3.org/2000/svg" width="976.451" height="94.495" viewBox="0 0 976.451 94.495"><path fill="#231F20" d="M50.081 18.401h-31.217v25.093h23.388v6.325h-23.388v34.528h-7.528v-72.27h38.745v6.324zM93.819 12.077c20.677 0 21.76 23.631 21.76 36.825 0 9.453.689 36.825-21.76 36.825-21.859 0-21.76-26.782-21.76-36.825 0-29.637 9.846-36.825 21.76-36.825zm14.375 36.824c0-6.498.984-30.622-14.375-30.622-15.754 0-14.375 26.486-14.375 30.622 0 8.074-.394 30.622 14.375 30.622 7.384 0 14.375-4.921 14.375-30.622zM143.337 12.077h18.771c18.067 0 19.673 16.261 19.673 20.477 0 7.429-2.811 14.254-12.849 19.976l19.474 31.818h-9.135l-17.565-30.112c-3.614.101-7.227.101-10.841.201v29.911h-7.528v-72.271zm14.655 35.935c10.239 0 16.261-5.221 16.261-15.859 0-9.636-4.015-13.751-15.959-13.751h-7.428v29.611h7.126zM252.319 12.077h7.428v72.271h-7.528v-55.006h-.2l-14.856 35.433-14.755-35.433-.201.201v54.805h-7.528v-72.271h7.328l15.156 36.036 15.156-36.036zM321.557 18.401h-9.836v59.624h9.836v6.323h-27.102v-6.323h9.737v-59.624h-9.737v-6.324h27.102v6.324zM357.671 12.911h18.302c13.902 0 23.204 7.901 23.204 36.004 0 27.704-8.602 36.005-24.304 36.005h-17.201v-72.009zm7.501 65.708h9.201c10.401 0 17.303-2.899 17.303-29.704 0-27.603-7.901-29.703-17.502-29.703h-9.001v59.407zM470.226 84.348h-7.466l-5.899-19.542h-20.188l-5.9 19.542h-7.466l23.414-71.9 23.505 71.9zm-31.894-25.35h16.869l-8.48-26.824-8.389 26.824zM499.488 84.348v-71.353h14.966c8.225 0 22.396.991 22.396 18.035 0 6.839-3.567 12.092-9.414 15.362 8.127 3.964 12.486 9.314 12.486 18.532 0 10.404-7.531 19.423-20.018 19.423h-20.416zm7.434-40.236h8.622c6.64 0 13.874-4.855 13.874-13.379 0-11.792-9.91-11.494-14.469-11.494h-8.027v24.873zm12.485 33.992c6.543 0 13.083-3.865 13.083-12.784 0-7.927-4.955-14.964-16.253-14.964h-9.315v27.748h12.485zM579.894 78.104h30.92v6.243h-38.353v-71.352h7.433v65.109zM678.734 19.239h-29.631v25.369h21.308v6.243h-21.308v27.253h30.325v6.243h-37.757v-71.352h37.062v6.244zM724.8 79.385h31.315v4.963h-35.975v-71.353h4.659v66.39zM830.889 84.348h-5.031l-6.17-20.787h-23.255l-6.264 20.787h-4.937l22.78-71.092 22.877 71.092zm-33.506-24.583h21.356l-10.727-34.359-10.629 34.359zM858.866 84.348v-71.353h17.442c10.404 0 17.64 6.541 17.64 17.442 0 7.828-4.46 13.081-11.396 16.153 9.217 2.675 14.567 9.315 14.567 18.929 0 10.206-6.54 18.828-17.838 18.828h-20.415zm11.892-39.145c12.19 0 18.533-5.946 18.533-15.063 0-7.631-3.271-13.18-15.163-13.18h-10.604v28.244h7.234zm7.73 35.182c5.848 0 13.973-4.262 13.973-14.668 0-8.622-6.045-16.549-16.648-16.549h-12.289v31.217h14.964zM963.008 23.498c-4.432-3.839-9.453-7.483-15.558-7.483-7.188 0-13.096 4.923-13.096 12.407 0 5.514 2.461 9.156 11.126 14.474l5.81 3.545c11.225 6.793 16.345 10.83 16.345 19.594 0 12.21-7.976 19.692-20.087 19.692-8.369 0-14.966-3.939-19.988-10.437l3.546-2.856c3.742 5.416 9.648 9.354 16.442 9.354 8.271 0 15.164-6.104 15.164-14.571 0-6.695-.788-9.255-13.884-17.034l-6.597-3.938c-6.794-4.037-12.8-8.763-12.8-17.33 0-10.633 8.074-16.836 18.314-16.836 6.695 0 13.193 3.544 18.018 7.975l-2.755 3.444z"/></svg>