<?xml version="1.0" encoding="utf-8"?>
<!-- Generator: Adobe Illustrator 16.0.0, SVG Export Plug-In . SVG Version: 6.00 Build 0)  -->
<!DOCTYPE svg PUBLIC "-//W3C//DTD SVG 1.1//EN" "http://www.w3.org/Graphics/SVG/1.1/DTD/svg11.dtd" [
	<!ENTITY st0 "fill:#EB2027;">
	<!ENTITY st1 "fill:#929497;">
	<!ENTITY st2 "fill:url(#SVGID_1_);">
	<!ENTITY st3 "fill:#FFFFFF;">
	<!ENTITY st4 "fill:#D4D7DE;">
	<!ENTITY st5 "fill:#404040;">
]>
<svg version="1.1" id="Layer_1" xmlns="http://www.w3.org/2000/svg" xmlns:xlink="http://www.w3.org/1999/xlink" x="0px" y="0px"
	 width="565px" height="165px" viewBox="0 0 565 165" style="enable-background:new 0 0 565 165;" xml:space="preserve">
<g>
	<g>
		<path style="&st0;" d="M515.28,45.8c-6.06-3.53-13.22-5.25-21.19-5.34c-8.24,0.09-15.3,1.81-21.55,5.34
			c-6.25,3.44-10.96,8.06-14.58,13.95c-3.44,5.71-5.34,12.23-5.34,19.2v0.27c0,6.97,1.72,13.31,5.25,19.02
			c3.62,5.71,8.33,10.41,14.49,13.77c6.16,3.44,13.31,5.25,21.37,5.34c8.15-0.09,15.21-1.9,21.46-5.43
			c6.25-3.44,10.96-8.06,14.49-13.86c3.53-5.71,5.34-12.23,5.43-19.11v-0.27c-0.09-6.97-1.9-13.49-5.43-19.2
			C526.33,53.68,521.53,49.15,515.28,45.8z M485.21,69.53c2.26-2.35,4.98-3.62,8.51-3.71c3.35,0.09,6.16,1.36,8.51,3.8
			c2.35,2.44,3.35,5.52,3.53,9.33v0.27c0,3.44-1.09,6.52-3.35,8.97c-2.17,2.44-4.98,3.71-8.33,3.8c-3.53-0.09-6.34-1.36-8.69-3.89
			c-2.35-2.45-3.44-5.52-3.62-9.15v-0.27C481.95,75.14,483.04,72.06,485.21,69.53z"/>
		<path style="&st0;" d="M450.89,37.01V17.45h-31.61v19.56H450.89z"/>
		<path style="&st0;" d="M415.12,17.45H384.6v98.08h30.52V17.45z"/>
		<path style="&st0;" d="M380.25,37.01V17.45h-31.61v19.56H380.25z"/>
		<path style="&st0;" d="M379.8,115.53V42.27h-30.52v73.26H379.8z"/>
		<path style="&st0;" d="M450.44,42.27h-30.52v73.26h30.52V42.27z"/>
		<path style="&st0;" d="M303.54,41.9h-24.27l-8.97,29.8l-7.43-29.43h-43.65V23.79h-30.52v18.48h-8.69v23.45h8.69v25.27
			c0,8.88,2.35,15.49,7.06,19.83c4.71,4.25,11.5,6.34,20.56,6.34c3.71,0,7.34-0.36,10.69-1.09c3.53-0.72,6.34-1.72,8.88-3.08V89.54
			c-1.63,0.72-3.17,1.36-4.8,1.72c-1.54,0.36-3.17,0.63-4.53,0.63c-2.44,0-4.26-0.63-5.52-1.72c-1.18-1.18-1.81-3.08-1.81-5.89
			V65.72h16.84v-15.3l19.83,65.66h25.27l10.14-31.42l9.78,31.42h25.54l22.55-73.81h-28.71l-7.88,29.79L303.54,41.9z"/>
	</g>
	<g>
		<path style="&st5;" d="M464.47,145.87v-3.62h-15.12v3.62h5.52v17.39h4.17v-17.39H464.47z"/>
		<path style="&st5;" d="M471.81,142.25h-4.08v21.01h4.08V142.25z"/>
		<path style="&st5;" d="M443.01,159.54l1.27,3.71h4.16l-7.7-21.01h-3.17l-7.52,21.01h4.26l1.18-3.71H443.01z M436.67,156.1
			l2.62-7.61l2.54,7.61H436.67z"/>
		<path style="&st5;" d="M475.98,152.84c0,2.26,0.09,4.07,0.27,5.16c0.27,1.09,0.82,2.17,1.63,2.99c0.91,0.82,1.81,1.45,2.72,1.81
			c0.9,0.45,1.9,0.63,3.17,0.63c1.09,0,2.17-0.18,3.08-0.63c0.9-0.36,1.72-0.81,2.44-1.63c1-0.91,1.54-2.08,1.81-3.17
			c0.27-1.09,0.36-2.9,0.36-5.16c0-2.27-0.09-3.99-0.36-5.16c-0.27-1.09-0.81-2.17-1.63-3.08c-0.81-0.82-1.72-1.45-2.62-1.81
			c-0.91-0.36-1.99-0.54-3.08-0.54c-1.27,0-2.27,0.18-3.17,0.54c-0.9,0.36-1.81,1-2.72,1.81c-0.81,0.9-1.36,1.99-1.63,3.08
			C476.07,148.86,475.98,150.58,475.98,152.84z M480.23,148.77c0.18-0.72,0.45-1.27,0.82-1.72c0.36-0.36,0.73-0.63,1.18-0.91
			c0.36-0.09,0.9-0.27,1.54-0.27c1,0,1.9,0.45,2.54,1.18c0.36,0.45,0.72,1.09,0.81,1.81c0.09,0.73,0.18,2.08,0.18,3.99
			c0,1.81-0.09,3.17-0.18,3.98c-0.09,0.72-0.54,1.45-1,2.08c-0.45,0.63-1.36,0.91-2.35,0.91c-1.18,0-1.99-0.36-2.54-0.91
			c-0.54-0.64-0.81-1.36-1-1.99c-0.09-0.72-0.09-1.99-0.09-4.07C480.14,150.94,480.14,149.58,480.23,148.77z"/>
		<path style="&st5;" d="M511.57,142.25h-4.08v12.86l-8.24-12.86h-3.62v21.01h4.07V150.4l8.24,12.86h3.62V142.25z"/>
		<path style="&st5;" d="M521.8,150.67c-0.82-0.09-1.36-0.36-1.72-0.63c-0.45-0.36-0.64-0.63-0.73-0.91
			c-0.09-0.18-0.18-0.54-0.18-0.82c0-0.81,0.36-1.36,0.91-1.9c0.54-0.54,1.36-0.72,2.35-0.72c0.81,0,1.63,0.18,2.35,0.36
			c0.73,0.27,1.36,0.63,1.99,1.18l2.62-2.62c-0.91-0.91-1.99-1.45-2.99-1.81c-1.09-0.36-2.35-0.54-3.8-0.54
			c-2.26,0-3.98,0.54-5.34,1.72c-1.27,1.18-2,2.72-2,4.62c0,1.72,0.55,2.99,1.54,3.98c0.91,1,2.27,1.54,4.08,1.81l2.45,0.27
			c0.45,0.09,0.81,0.27,1.18,0.36c0.36,0.09,0.54,0.36,0.91,0.54c0.36,0.36,0.45,0.9,0.45,1.72c0,1.63-1.27,2.54-3.62,2.54
			c-1.08,0-2.08-0.18-2.9-0.45c-0.81-0.27-1.54-0.73-2.26-1.36l-2.54,2.72c1,1,2.08,1.72,3.26,2.08c1.27,0.45,2.72,0.63,4.35,0.63
			c2.26,0,4.17-0.54,5.62-1.72c1.36-1.09,2.17-2.63,2.17-4.62c0-0.99-0.18-1.81-0.45-2.53c-0.27-0.82-0.73-1.45-1.45-2.17
			c-0.72-0.63-1.99-1.09-3.8-1.36L521.8,150.67z"/>
		<path style="&st5;" d="M321.38,142.25h-4.08v21.01h4.08v-12.23l4.08,7.88h2.72l3.89-7.88v12.23h4.17v-21.01h-4.17l-5.25,11.32
			L321.38,142.25z"/>
		<path style="&st5;" d="M302.37,142.79c-0.9,0.36-1.81,1-2.62,1.81c-0.91,0.9-1.36,1.99-1.63,3.08c-0.18,1.18-0.28,2.9-0.28,5.16
			c0,2.26,0.09,4.07,0.28,5.16c0.27,1.09,0.72,2.17,1.63,2.99c0.81,0.82,1.72,1.45,2.62,1.81c1,0.45,2.08,0.63,3.17,0.63
			c1.18,0,2.26-0.18,3.17-0.63c0.91-0.36,1.72-0.81,2.54-1.63c0.9-0.91,1.54-2.08,1.72-3.17c0.27-1.09,0.27-2.9,0.27-5.16
			c0-2.27,0-3.99-0.27-5.16c-0.18-1.09-0.82-2.17-1.63-3.08c-0.82-0.82-1.72-1.45-2.63-1.81c-0.91-0.36-1.99-0.54-3.17-0.54
			C304.36,142.25,303.27,142.43,302.37,142.79z M302.19,148.77c0.09-0.72,0.27-1.27,0.63-1.72c0.46-0.36,0.82-0.63,1.27-0.91
			c0.36-0.09,0.91-0.27,1.45-0.27c1.18,0,1.99,0.45,2.62,1.18c0.36,0.45,0.64,1.09,0.82,1.81c0.18,0.73,0.18,2.08,0.18,3.99
			c0,1.81,0,3.17-0.18,3.98c-0.18,0.72-0.46,1.45-1,2.08c-0.46,0.63-1.27,0.91-2.45,0.91c-1.09,0-1.9-0.36-2.44-0.91
			c-0.45-0.64-0.82-1.36-0.91-1.99c-0.18-0.72-0.27-1.99-0.27-4.07C301.91,150.94,302,149.58,302.19,148.77z"/>
		<path style="&st5;" d="M359.96,142.25h-4.17l-5.25,11.32l-5.52-11.32h-3.98v21.01h4.17v-12.23l3.98,7.88h2.72l3.89-7.88v12.23
			h4.17V142.25z"/>
		<path style="&st5;" d="M364.4,156.01c0,2.26,0.73,3.98,2.17,5.43c1.45,1.27,3.26,1.99,5.52,1.99c2.18,0,3.98-0.72,5.43-1.99
			c1.54-1.45,2.26-3.17,2.26-5.43v-13.77h-4.08v13.67c0,1.18-0.27,2.17-0.99,2.81c-0.64,0.72-1.45,1.09-2.63,1.09
			c-1.08,0-1.99-0.45-2.63-1.09c-0.63-0.73-1-1.63-1-2.81v-13.67h-4.07V156.01z"/>
		<path style="&st5;" d="M400.27,142.25h-4.08v12.86l-8.24-12.86h-3.62v21.01h4.08V150.4l8.24,12.86h3.62V142.25z"/>
		<path style="&st5;" d="M423.54,146.68c0.55,0.54,0.91,1.27,1.09,2.08h4.17c-0.36-2.17-1.18-3.71-2.53-4.89
			c-1.45-1.08-3.17-1.63-5.16-1.63c-1.18,0-2.17,0.18-3.08,0.54c-0.91,0.36-1.81,1-2.63,1.81c-0.91,0.9-1.36,1.99-1.63,3.08
			c-0.18,1.18-0.27,2.9-0.27,5.16c0,2.26,0.09,4.07,0.27,5.16c0.27,1.09,0.73,2.17,1.63,2.99c0.81,0.82,1.72,1.45,2.63,1.81
			c1,0.45,1.99,0.63,3.08,0.63c1.99,0,3.71-0.63,5.16-1.72c1.36-1.09,2.26-2.81,2.53-4.89h-4.17c-0.18,0.91-0.54,1.63-1.09,2.08
			c-0.63,0.63-1.36,0.91-2.35,0.91c-1.09,0-1.99-0.27-2.44-0.91c-0.45-0.64-0.91-1.27-1-1.99c-0.09-0.81-0.18-2.17-0.18-4.07
			c0-1.9,0.09-3.17,0.27-3.99c0.09-0.81,0.45-1.54,0.91-2.08c0.45-0.63,1.36-0.9,2.44-0.9C422.18,145.87,422.9,146.14,423.54,146.68
			z"/>
		<path style="&st5;" d="M409.32,142.25h-4.17v21.01h4.17V142.25z"/>
		<path style="&st5;" d="M180.47,158c0.27,1.09,0.73,2.17,1.54,2.99c0.91,0.82,1.81,1.45,2.72,1.81c0.91,0.45,1.99,0.63,3.17,0.63
			c1.9,0,3.62-0.63,4.98-1.72c1.45-1.09,2.35-2.81,2.63-4.89h-4.08c-0.27,0.91-0.63,1.63-1.27,2.08c-0.54,0.63-1.27,0.91-2.27,0.91
			c-1.18,0-1.9-0.27-2.44-0.91c-0.54-0.64-0.82-1.27-1-1.99c-0.09-0.81-0.18-2.17-0.18-4.07c0-1.9,0.09-3.17,0.18-3.99
			c0.18-0.81,0.45-1.54,1-2.08c0.54-0.63,1.27-0.9,2.44-0.9c1,0,1.72,0.27,2.27,0.81c0.63,0.54,1,1.27,1.27,2.08h4.08
			c-0.36-2.17-1.18-3.71-2.63-4.89c-1.36-1.08-3.08-1.63-5.07-1.63c-1.18,0-2.17,0.18-3.08,0.54c-0.91,0.36-1.81,1-2.72,1.81
			c-0.81,0.9-1.27,1.99-1.54,3.08c-0.27,1.18-0.27,2.9-0.27,5.16C180.2,155.11,180.2,156.92,180.47,158z"/>
		<path style="&st5;" d="M216.97,144.6c-0.81,0.9-1.36,1.99-1.54,3.08c-0.27,1.18-0.27,2.9-0.27,5.16c0,2.26,0,4.07,0.27,5.16
			c0.18,1.09,0.73,2.17,1.54,2.99c0.91,0.82,1.81,1.45,2.72,1.81c0.91,0.45,1.99,0.63,3.17,0.63c1.18,0,2.26-0.18,3.17-0.63
			c0.91-0.36,1.72-0.81,2.45-1.63c1-0.91,1.54-2.08,1.72-3.17c0.27-1.09,0.36-2.9,0.36-5.16c0-2.27-0.09-3.99-0.36-5.16
			c-0.18-1.09-0.72-2.17-1.54-3.08c-0.91-0.82-1.72-1.45-2.63-1.81c-1-0.36-1.99-0.54-3.17-0.54c-1.27,0-2.26,0.18-3.17,0.54
			C218.78,143.15,217.87,143.79,216.97,144.6z M219.41,148.77c0.18-0.72,0.36-1.27,0.72-1.72c0.36-0.36,0.81-0.63,1.27-0.91
			c0.36-0.09,0.91-0.27,1.45-0.27c1.09,0,1.9,0.45,2.63,1.18c0.36,0.45,0.63,1.09,0.82,1.81c0.09,0.73,0.09,2.08,0.09,3.99
			c0,1.81,0,3.17-0.09,3.98c-0.18,0.72-0.54,1.45-1.09,2.08c-0.45,0.63-1.27,0.91-2.35,0.91c-1.09,0-1.9-0.36-2.45-0.91
			c-0.54-0.64-0.81-1.36-1-1.99c-0.18-0.72-0.18-1.99-0.18-4.07C219.23,150.94,219.23,149.58,219.41,148.77z"/>
		<path style="&st5;" d="M212.53,159.54h-9.51v-17.3h-4.08v21.01h13.58V159.54z"/>
		<path style="&st5;" d="M249.75,142.25h-3.98v13.67c0,1.18-0.36,2.17-1.09,2.81c-0.54,0.72-1.45,1.09-2.54,1.09
			c-1.18,0-1.99-0.45-2.72-1.09c-0.63-0.73-0.91-1.63-0.91-2.81v-13.67h-4.08v13.77c0,2.26,0.63,3.98,2.08,5.43
			c1.54,1.27,3.35,1.99,5.52,1.99c2.17,0,3.98-0.72,5.52-1.99c1.45-1.45,2.17-3.17,2.17-5.43V142.25z"/>
		<path style="&st5;" d="M254.28,142.25v21.01h7.52c1.09,0,2.08-0.27,3.08-0.54c1-0.36,1.72-0.91,2.44-1.54
			c0.91-0.91,1.54-1.9,1.72-2.99c0.27-1.09,0.36-2.54,0.36-4.17v-2.72c0-1.63-0.09-3.08-0.36-4.08c-0.18-1.09-0.81-1.99-1.54-2.81
			c-0.82-0.81-1.63-1.36-2.63-1.72c-1-0.27-1.9-0.45-3.08-0.45H254.28z M264.42,147.23c0.36,0.45,0.63,1,0.72,1.81
			c0.09,0.73,0.09,1.9,0.09,3.62c0,1.72,0,2.99-0.09,3.71c-0.09,0.81-0.45,1.54-1,2.17c-0.45,0.63-1.36,1-2.72,1h-2.99v-13.67h2.99
			c0.63,0,1.27,0.18,1.81,0.36C263.7,146.41,264.15,146.77,264.42,147.23z"/>
		<path style="&st5;" d="M284.07,148.86c0.18-0.81,0.45-1.54,0.9-2.08c0.54-0.63,1.36-0.9,2.45-0.9c1,0,1.81,0.27,2.36,0.81
			c0.63,0.54,0.9,1.27,1.17,2.08h4.17c-0.45-2.17-1.27-3.71-2.63-4.89c-1.45-1.08-3.08-1.63-5.07-1.63c-1.18,0-2.27,0.18-3.17,0.54
			c-0.9,0.36-1.81,1-2.62,1.81c-0.91,0.9-1.36,1.99-1.63,3.08c-0.18,1.18-0.27,2.9-0.27,5.16c0,2.26,0.09,4.07,0.27,5.16
			c0.27,1.09,0.72,2.17,1.63,2.99c0.81,0.82,1.72,1.45,2.62,1.81c1,0.45,2.08,0.63,3.17,0.63c1.99,0,3.62-0.63,5.07-1.72
			c1.45-1.09,2.27-2.81,2.63-4.89h-4.17c-0.27,0.91-0.54,1.63-1.17,2.08c-0.55,0.63-1.36,0.91-2.36,0.91c-1.09,0-1.9-0.27-2.45-0.91
			c-0.45-0.64-0.81-1.27-0.9-1.99c-0.18-0.81-0.27-2.17-0.27-4.07C283.8,150.94,283.98,149.67,284.07,148.86z"/>
	</g>
	<g>
		<g>
			<g>
				<g>
					
						<radialGradient id="SVGID_1_" cx="25009.6641" cy="23550.2871" r="551.7819" gradientTransform="matrix(0.1338 0 0 0.1327 -3265.5786 -3050.7947)" gradientUnits="userSpaceOnUse">
						<stop  offset="0.4431" style="stop-color:#B4B6BC"/>
						<stop  offset="1" style="stop-color:#6E7172"/>
					</radialGradient>
					<path style="&st2;" d="M154.07,74.33c0-20.01-7.15-37.2-21.46-51.48c-14.3-14.19-31.64-21.28-51.9-21.28
						c-20.17,0-37.5,7.09-51.9,21.28C14.51,37.13,7.36,54.32,7.36,74.33c0,20.1,7.15,37.29,21.46,51.48
						c14.4,14.19,31.73,21.29,51.9,21.29c20.26,0,37.59-7.1,51.9-21.29C146.92,111.62,154.07,94.43,154.07,74.33z M134.54,74.33
						c0,14.74-5.32,27.29-15.77,37.75c-10.54,10.46-23.2,15.65-38.05,15.65c-14.86,0-27.51-5.18-38.05-15.65
						c-10.45-10.46-15.77-23.01-15.77-37.75c0-14.74,5.32-27.29,15.77-37.75c10.54-10.37,23.2-15.64,38.05-15.64
						c14.85,0,27.51,5.28,38.05,15.64C129.22,47.04,134.54,59.59,134.54,74.33z"/>
					<path style="&st3;" d="M118.77,112.08c10.45-10.46,15.77-23.01,15.77-37.75c0-14.74-5.32-27.29-15.77-37.75
						c-10.54-10.37-23.2-15.64-38.05-15.64c-14.86,0-27.51,5.28-38.05,15.64C32.21,47.04,26.89,59.59,26.89,74.33
						c0,14.74,5.32,27.29,15.77,37.75c10.54,10.46,23.2,15.65,38.05,15.65C95.57,127.72,108.22,122.54,118.77,112.08z"/>
				</g>
				<g>
					<path style="&st0;" d="M62.19,42.76c-4.04,0-7.52,1.46-10.36,4.28c-2.84,2.91-4.31,6.28-4.31,10.28c0,4,1.47,7.46,4.31,10.28
						c2.84,2.91,6.33,4.27,10.36,4.27c4.03,0,7.52-1.36,10.36-4.27c2.84-2.82,4.31-6.28,4.31-10.28c0-4-1.47-7.37-4.31-10.28
						C69.71,44.22,66.23,42.76,62.19,42.76z"/>
				</g>
				<g>
					<path style="&st4;" d="M99.33,42.76c-4.04,0-7.52,1.46-10.36,4.28c-2.84,2.91-4.31,6.28-4.31,10.28c0,4,1.47,7.46,4.31,10.28
						c2.84,2.91,6.33,4.27,10.36,4.27c4.03,0,7.52-1.36,10.36-4.27c2.93-2.82,4.31-6.28,4.31-10.28c0-4-1.38-7.37-4.31-10.28
						C106.85,44.22,103.36,42.76,99.33,42.76z"/>
				</g>
				<g>
					<path style="&st4;" d="M62.19,76.78c-4.04,0-7.52,1.45-10.36,4.28c-2.84,2.82-4.31,6.28-4.31,10.28c0,4,1.47,7.46,4.31,10.28
						c2.84,2.82,6.33,4.27,10.36,4.27c4.03,0,7.52-1.45,10.36-4.27c2.84-2.82,4.31-6.28,4.31-10.28c0-4-1.47-7.46-4.31-10.28
						C69.71,78.24,66.23,76.78,62.19,76.78z"/>
				</g>
				<g>
					<path style="&st0;" d="M99.33,76.78c-3.94,0-7.43,1.37-10.36,4.28c-2.94,2.91-4.31,6.28-4.31,10.37
						c0,3.91,1.38,7.37,4.31,10.19c2.93,2.82,6.42,4.27,10.36,4.27c4.13,0,7.52-1.45,10.36-4.27c2.93-2.82,4.31-6.28,4.31-10.19
						c0-4.09-1.38-7.46-4.31-10.37C106.85,78.15,103.45,76.78,99.33,76.78z"/>
				</g>
			</g>
		</g>
	</g>
	<g>
		<path style="&st1;" d="M538.74,43.71h-3.75v-1.34h9.12v1.34h-3.76v10.87h-1.61V43.71z"/>
		<path style="&st1;" d="M555.78,49.22c-0.09-1.7-0.2-3.77-0.2-5.28h-0.04c-0.44,1.42-0.93,2.95-1.55,4.64l-2.17,5.93h-1.21
			l-2.01-5.82c-0.59-1.74-1.06-3.3-1.41-4.75h-0.04c-0.03,1.52-0.13,3.55-0.23,5.4l-0.33,5.24h-1.52l0.86-12.22h2.03l2.1,5.91
			c0.51,1.5,0.91,2.85,1.24,4.11h0.04c0.33-1.23,0.77-2.57,1.32-4.11l2.19-5.91h2.03l0.77,12.22h-1.57L555.78,49.22z"/>
	</g>
</g>
</svg>
