<svg xmlns="http://www.w3.org/2000/svg" viewBox="0 0 565 165" enable-background="new 0 0 565 165"><path d="M515.3 45.8c-6.1-3.5-13.2-5.2-21.2-5.3-8.2.1-15.3 1.8-21.5 5.3-6.2 3.4-11 8.1-14.6 14-3.4 5.7-5.3 12.2-5.3 19.2v.3c0 7 1.7 13.3 5.2 19 3.6 5.7 8.3 10.4 14.5 13.8 6.2 3.4 13.3 5.2 21.4 5.3 8.1-.1 15.2-1.9 21.5-5.4 6.2-3.4 11-8.1 14.5-13.9 3.5-5.7 5.3-12.2 5.4-19.1v-.3c-.1-7-1.9-13.5-5.4-19.2-3.5-5.8-8.3-10.3-14.5-13.7zm-30.1 23.7c2.3-2.3 5-3.6 8.5-3.7 3.4.1 6.2 1.4 8.5 3.8s3.4 5.5 3.5 9.3v.3c0 3.4-1.1 6.5-3.4 9-2.2 2.4-5 3.7-8.3 3.8-3.5-.1-6.3-1.4-8.7-3.9-2.4-2.4-3.4-5.5-3.6-9.2v-.3c.3-3.5 1.3-6.5 3.5-9.1zm-34.3-32.5v-19.5h-31.6v19.5h31.6zm-35.8-19.5h-30.5v98.1h30.5v-98.1zm-34.9 19.5v-19.5h-31.6v19.5h31.6zm-.4 78.5v-73.2h-30.5v73.3h30.5zm70.6-73.2h-30.5v73.3h30.5v-73.3zm-146.9-.4h-24.3l-9 29.8-7.4-29.4h-43.6v-18.5h-30.5v18.5h-8.7v23.5h8.7v25.2c0 8.9 2.4 15.5 7.1 19.8 4.7 4.2 11.5 6.3 20.6 6.3 3.7 0 7.3-.4 10.7-1.1 3.5-.7 6.3-1.7 8.9-3.1v-23.4c-1.6.7-3.2 1.4-4.8 1.7-1.5.4-3.2.6-4.5.6-2.4 0-4.3-.6-5.5-1.7-1.2-1.2-1.8-3.1-1.8-5.9v-18.5h16.8v-15.3l19.8 65.7h25.3l10.1-31.4 9.8 31.4h25.5l22.5-73.8h-28.7l-7.9 29.8-9.1-30.2z" fill="#EB2027"/><path d="M464.5 145.9v-3.6h-15.1v3.6h5.5v17.4h4.2v-17.4h5.4zm7.3-3.7h-4.1v21h4.1v-21zm-28.8 17.3l1.3 3.7h4.2l-7.7-21h-3.2l-7.5 21h4.3l1.2-3.7h7.4zm-6.3-3.4l2.6-7.6 2.5 7.6h-5.1zm39.3-3.3c0 2.3.1 4.1.3 5.2.3 1.1.8 2.2 1.6 3 .9.8 1.8 1.4 2.7 1.8.9.4 1.9.6 3.2.6 1.1 0 2.2-.2 3.1-.6.9-.4 1.7-.8 2.4-1.6 1-.9 1.5-2.1 1.8-3.2s.4-2.9.4-5.2c0-2.3-.1-4-.4-5.2-.3-1.1-.8-2.2-1.6-3.1-.8-.8-1.7-1.4-2.6-1.8-.9-.4-2-.5-3.1-.5-1.3 0-2.3.2-3.2.5-.9.4-1.8 1-2.7 1.8-.8.9-1.4 2-1.6 3.1-.2 1.3-.3 3-.3 5.2zm4.2-4c.2-.7.5-1.3.8-1.7.4-.4.7-.6 1.2-.9.4-.1.9-.3 1.5-.3 1 0 1.9.4 2.5 1.2.4.4.7 1.1.8 1.8.1.7.2 2.1.2 4 0 1.8-.1 3.2-.2 4-.1.7-.5 1.4-1 2.1-.5.6-1.4.9-2.4.9-1.2 0-2-.4-2.5-.9-.5-.6-.8-1.4-1-2-.1-.7-.1-2-.1-4.1.1-2 .1-3.3.2-4.1zm31.4-6.6h-4.1v12.9l-8.2-12.9h-3.6v21h4.1v-12.9l8.2 12.9h3.6v-21zm10.2 8.5c-.8-.1-1.4-.4-1.7-.6-.5-.4-.6-.6-.7-.9-.1-.2-.2-.5-.2-.8 0-.8.4-1.4.9-1.9s1.4-.7 2.3-.7c.8 0 1.6.2 2.3.4.7.3 1.4.6 2 1.2l2.6-2.6c-.9-.9-2-1.4-3-1.8-1.1-.4-2.3-.5-3.8-.5-2.3 0-4 .5-5.3 1.7-1.3 1.2-2 2.7-2 4.6 0 1.7.5 3 1.5 4 .9 1 2.3 1.5 4.1 1.8l2.5.3c.5.1.8.3 1.2.4l.9.5c.4.4.5.9.5 1.7 0 1.6-1.3 2.5-3.6 2.5-1.1 0-2.1-.2-2.9-.4-.8-.3-1.5-.7-2.3-1.4l-2.5 2.7c1 1 2.1 1.7 3.3 2.1 1.3.4 2.7.6 4.3.6 2.3 0 4.2-.5 5.6-1.7 1.4-1.1 2.2-2.6 2.2-4.6 0-1-.2-1.8-.5-2.5-.3-.8-.7-1.4-1.5-2.2-.7-.6-2-1.1-3.8-1.4l-2.4-.5zm-200.4-8.5h-4.1v21h4.1v-12.2l4.1 7.9h2.7l3.9-7.9v12.2h4.2v-21h-4.2l-5.2 11.3-5.5-11.3zm-19 .6c-.9.4-1.8 1-2.6 1.8-.9.9-1.4 2-1.6 3.1-.2 1.2-.3 2.9-.3 5.2 0 2.3.1 4.1.3 5.2.3 1.1.7 2.2 1.6 3 .8.8 1.7 1.4 2.6 1.8 1 .4 2.1.6 3.2.6 1.2 0 2.3-.2 3.2-.6.9-.4 1.7-.8 2.5-1.6.9-.9 1.5-2.1 1.7-3.2.3-1.1.3-2.9.3-5.2 0-2.3 0-4-.3-5.2-.2-1.1-.8-2.2-1.6-3.1-.8-.8-1.7-1.4-2.6-1.8s-2-.5-3.2-.5-2.3.1-3.2.5zm-.2 6c.1-.7.3-1.3.6-1.7.5-.4.8-.6 1.3-.9.4-.1.9-.3 1.5-.3 1.2 0 2 .4 2.6 1.2.4.4.6 1.1.8 1.8.2.7.2 2.1.2 4 0 1.8 0 3.2-.2 4-.2.7-.5 1.4-1 2.1-.5.6-1.3.9-2.5.9-1.1 0-1.9-.4-2.4-.9-.5-.6-.8-1.4-.9-2-.2-.7-.3-2-.3-4.1 0-2 .1-3.3.3-4.1zm57.8-6.6h-4.2l-5.2 11.3-5.5-11.3h-4v21h4.2v-12.2l4 7.9h2.7l3.9-7.9v12.2h4.2l-.1-21zm4.4 13.8c0 2.3.7 4 2.2 5.4 1.5 1.3 3.3 2 5.5 2s4-.7 5.4-2c1.5-1.4 2.3-3.2 2.3-5.4v-13.8h-4.1v13.7c0 1.2-.3 2.2-1 2.8-.6.7-1.5 1.1-2.6 1.1s-2-.4-2.6-1.1c-.6-.7-1-1.6-1-2.8v-13.7h-4.1v13.8zm35.9-13.8h-4.1v12.9l-8.2-12.9h-3.6v21h4.1v-12.9l8.2 12.9h3.6v-21zm23.2 4.5c.5.5.9 1.3 1.1 2.1h4.2c-.4-2.2-1.2-3.7-2.5-4.9-1.5-1.1-3.2-1.6-5.2-1.6-1.2 0-2.2.2-3.1.5-.9.4-1.8 1-2.6 1.8-.9.9-1.4 2-1.6 3.1-.2 1.2-.3 2.9-.3 5.2 0 2.3.1 4.1.3 5.2.3 1.1.7 2.2 1.6 3 .8.8 1.7 1.4 2.6 1.8 1 .4 2 .6 3.1.6 2 0 3.7-.6 5.2-1.7 1.4-1.1 2.3-2.8 2.5-4.9h-4.2c-.2.9-.5 1.6-1.1 2.1-.6.6-1.4.9-2.4.9-1.1 0-2-.3-2.4-.9s-.9-1.3-1-2c-.1-.8-.2-2.2-.2-4.1 0-1.9.1-3.2.3-4 .1-.8.5-1.5.9-2.1.5-.6 1.4-.9 2.4-.9 1.1 0 1.8.2 2.4.8zm-14.2-4.5h-4.2v21h4.2v-21zm-228.8 15.8c.3 1.1.7 2.2 1.5 3 .9.8 1.8 1.4 2.7 1.8.9.4 2 .6 3.2.6 1.9 0 3.6-.6 5-1.7s2.4-2.8 2.6-4.9h-4.1c-.3.9-.6 1.6-1.3 2.1-.5.6-1.3.9-2.3.9-1.2 0-1.9-.3-2.4-.9-.5-.6-.8-1.3-1-2-.1-.8-.2-2.2-.2-4.1 0-1.9.1-3.2.2-4 .2-.8.4-1.5 1-2.1.5-.6 1.3-.9 2.4-.9 1 0 1.7.3 2.3.8.6.5 1 1.3 1.3 2.1h4.1c-.4-2.2-1.2-3.7-2.6-4.9-1.4-1.1-3.1-1.6-5.1-1.6-1.2 0-2.2.2-3.1.5s-1.8 1-2.7 1.8c-.8.9-1.3 2-1.5 3.1-.3 1.2-.3 2.9-.3 5.2 0 2.3 0 4.1.3 5.2zm36.5-13.4c-.8.9-1.4 2-1.5 3.1-.3 1.2-.3 2.9-.3 5.2 0 2.3 0 4.1.3 5.2.2 1.1.7 2.2 1.5 3 .9.8 1.8 1.4 2.7 1.8.9.4 2 .6 3.2.6s2.3-.2 3.2-.6c.9-.4 1.7-.8 2.4-1.6 1-.9 1.5-2.1 1.7-3.2.3-1.1.4-2.9.4-5.2 0-2.3-.1-4-.4-5.2-.2-1.1-.7-2.2-1.5-3.1-.9-.8-1.7-1.4-2.6-1.8-1-.4-2-.5-3.2-.5-1.3 0-2.3.2-3.2.5-.9.3-1.8 1-2.7 1.8zm2.4 4.2c.2-.7.4-1.3.7-1.7.4-.4.8-.6 1.3-.9.4-.1.9-.3 1.4-.3 1.1 0 1.9.4 2.6 1.2.4.4.6 1.1.8 1.8.1.7.1 2.1.1 4 0 1.8 0 3.2-.1 4-.2.7-.5 1.4-1.1 2.1-.4.6-1.3.9-2.4.9-1.1 0-1.9-.4-2.4-.9-.5-.6-.8-1.4-1-2-.2-.7-.2-2-.2-4.1.1-2 .1-3.3.3-4.1zm-6.9 10.7h-9.5v-17.3h-4.1v21h13.6v-3.7zm37.3-17.3h-4v13.7c0 1.2-.4 2.2-1.1 2.8-.5.7-1.4 1.1-2.5 1.1-1.2 0-2-.4-2.7-1.1-.6-.7-.9-1.6-.9-2.8v-13.7h-4.1v13.8c0 2.3.6 4 2.1 5.4 1.5 1.3 3.4 2 5.5 2s4-.7 5.5-2c1.4-1.4 2.2-3.2 2.2-5.4v-13.8zm4.5 0v21h7.5c1.1 0 2.1-.3 3.1-.5 1-.4 1.7-.9 2.4-1.5.9-.9 1.5-1.9 1.7-3 .3-1.1.4-2.5.4-4.2v-2.7c0-1.6-.1-3.1-.4-4.1-.2-1.1-.8-2-1.5-2.8-.8-.8-1.6-1.4-2.6-1.7-1-.3-1.9-.4-3.1-.4l-7.5-.1zm10.1 5c.4.4.6 1 .7 1.8.1.7.1 1.9.1 3.6s0 3-.1 3.7c-.1.8-.5 1.5-1 2.2-.5.6-1.4 1-2.7 1h-3v-13.7h3c.6 0 1.3.2 1.8.4s.9.6 1.2 1zm19.7 1.7c.2-.8.5-1.5.9-2.1.5-.6 1.4-.9 2.5-.9 1 0 1.8.3 2.4.8.6.5.9 1.3 1.2 2.1h4.2c-.5-2.2-1.3-3.7-2.6-4.9-1.5-1.1-3.1-1.6-5.1-1.6-1.2 0-2.3.2-3.2.5-.9.4-1.8 1-2.6 1.8-.9.9-1.4 2-1.6 3.1-.2 1.2-.3 2.9-.3 5.2 0 2.3.1 4.1.3 5.2.3 1.1.7 2.2 1.6 3 .8.8 1.7 1.4 2.6 1.8 1 .4 2.1.6 3.2.6 2 0 3.6-.6 5.1-1.7s2.3-2.8 2.6-4.9h-4.3c-.3.9-.5 1.6-1.2 2.1-.5.6-1.4.9-2.4.9-1.1 0-1.9-.3-2.5-.9-.5-.6-.8-1.3-.9-2-.2-.8-.3-2.2-.3-4.1.1-2 .3-3.2.4-4z" fill="#404040"/><radialGradient id="a" cx="24796.031" cy="-24475.815" r="551.805" gradientTransform="matrix(.134 0 0 -.133 -3236.994 -3173.606)" gradientUnits="userSpaceOnUse"><stop offset=".443" stop-color="#B4B6BC"/><stop offset="1" stop-color="#6E7172"/></radialGradient><path fill="url(#a)" d="M154.1 74.3c0-20-7.1-37.2-21.5-51.5-14.3-14.1-31.6-21.2-51.9-21.2-20.2 0-37.5 7.1-51.9 21.3-14.3 14.2-21.4 31.4-21.4 51.4 0 20.1 7.2 37.3 21.5 51.5 14.4 14.2 31.7 21.3 51.9 21.3 20.3 0 37.6-7.1 51.9-21.3 14.2-14.2 21.4-31.4 21.4-51.5zm-19.6 0c0 14.7-5.3 27.3-15.8 37.8-10.5 10.5-23.2 15.7-38.1 15.7-14.9 0-27.5-5.2-38-15.7s-15.8-23-15.8-37.8 5.4-27.3 15.9-37.7c10.5-10.4 23.2-15.6 38-15.6s27.5 5.3 38.1 15.6c10.4 10.4 15.7 23 15.7 37.7z"/><path fill="#fff" d="M118.8 112.1c10.5-10.5 15.8-23 15.8-37.8s-5.3-27.3-15.8-37.8c-10.5-10.4-23.2-15.6-38.1-15.6-14.9 0-27.5 5.3-38 15.6-10.5 10.5-15.8 23.1-15.8 37.8s5.3 27.3 15.8 37.8c10.5 10.5 23.2 15.7 38 15.7 14.9-.1 27.5-5.3 38.1-15.7z"/><path fill="#EB2027" d="M62.2 42.8c-4 0-7.5 1.5-10.4 4.3-2.8 2.9-4.3 6.3-4.3 10.3s1.5 7.5 4.3 10.3c2.8 2.9 6.3 4.3 10.4 4.3s7.5-1.4 10.4-4.3c2.8-2.8 4.3-6.3 4.3-10.3s-1.5-7.4-4.4-10.4c-2.8-2.8-6.3-4.2-10.3-4.2z"/><path fill="#D4D7DE" d="M99.3 42.8c-4 0-7.5 1.5-10.4 4.3-2.8 2.9-4.3 6.3-4.3 10.3s1.5 7.5 4.3 10.3c2.8 2.9 6.3 4.3 10.4 4.3s7.5-1.4 10.4-4.3c2.9-2.8 4.3-6.3 4.3-10.3s-1.4-7.4-4.3-10.3c-2.9-2.9-6.3-4.3-10.4-4.3zm-37.1 34c-4 0-7.5 1.4-10.4 4.3-2.8 2.8-4.3 6.3-4.3 10.3s1.5 7.5 4.3 10.3 6.3 4.3 10.4 4.3 7.5-1.4 10.4-4.3 4.3-6.3 4.3-10.3-1.5-7.5-4.3-10.3-6.4-4.3-10.4-4.3z"/><path fill="#EB2027" d="M99.3 76.8c-3.9 0-7.4 1.4-10.4 4.3-2.9 2.9-4.3 6.3-4.3 10.4 0 3.9 1.4 7.4 4.3 10.2s6.4 4.3 10.4 4.3c4.1 0 7.5-1.4 10.4-4.3 2.9-2.8 4.3-6.3 4.3-10.2 0-4.1-1.4-7.5-4.3-10.4-2.9-2.9-6.3-4.3-10.4-4.3z"/><path d="M538.7 43.7h-3.7v-1.3h9.1v1.3h-3.8v10.9h-1.6v-10.9zm17.1 5.5c-.1-1.7-.2-3.8-.2-5.3-.4 1.4-.9 3-1.5 4.6l-2.2 5.9h-1.2l-2-5.8c-.6-1.7-1.1-3.3-1.4-4.8 0 1.5-.1 3.5-.2 5.4l-.3 5.2h-1.5l.9-12.2h2l2.1 5.9c.5 1.5.9 2.8 1.2 4.1.3-1.2.8-2.6 1.3-4.1l2.2-5.9h2l.8 12.2h-1.6l-.4-5.2z" fill="#929497"/></svg>