<svg xmlns="http://www.w3.org/2000/svg" viewBox="0 0 200 61.1" enable-background="new 0 0 200 61.1"><path fill="#F9A900" d="M38.6 56.4c-4.2-.1-11.2-1.7-11.2-6.6 0-4.6 6.2-7.3 10.3-7.4 12.4-.3 27.7 2.8 50.1 3.9 6.6.3 27.4.4 31.7-1.8 3.6-1.7 2.9-8.2 15-10.2 12.3-2 37.7 7.2 37.7 14.1 0 5.1-21.9 14.8-38.4 12.3-9.5-1.4-12-8.5-14.1-9.1-3.4-2-26.7-1.5-31.8-1.3-10.1.5-41.3 6.2-49.3 6.1z"/><path fill="#fff" d="M129.1 39.4c1.5-1.2 5.3-2.1 7.6-2.1 6.1.1 9.6 2.1 10.5 2.8-4.1-1.1-9.3-1.5-11.6-1.2-3.8.4-5.8 2.7-7.1 2.3-.9-.5.6-1.8.6-1.8zm-96.8 11.9c-.6.4-.2 1.9 3.7 2.8 3.8.9 5.3 0 5.4-.1-5.7.3-8.3-3.1-9.1-2.7z"/><path d="M11.5 22.1c-1 2.1-3.2 2.5-5.4 2.5-4.5 0-6.1-1.8-6.1-6.3v-11h2.6v11c0 2.8.2 4.2 3.5 4.2 3.6 0 5.5-.6 5.5-4.7v-10.5h2.6v17.1h-2.6v-2.3zm11.9-14.8l-.1 2.1.1.1c.9-1.9 2.9-2.4 4.8-2.4 3.3 0 4.7 1.6 4.7 4.8v1.2h-2.4v-1.1c0-2.1-.7-2.8-2.9-2.8-3.2 0-4.2 1.5-4.2 4.6v10.6h-2.6v-17.1h2.6zm14.8-7.3h2.6v9.5h.1c.8-2.2 3.5-2.4 5.5-2.4 5.9 0 6.7 3.4 6.7 8.7 0 5.6-.7 8.7-6.7 8.7-2.3 0-4.6-.4-5.5-2.3l-.1.1v2h-2.6v-24.3zm7.4 9.2c-4.5 0-4.8 1.8-4.8 6.7 0 5.5 1 6.6 4.8 6.6 4.6 0 4.7-2 4.7-6.6 0-5.6-.6-6.7-4.7-6.7zm25.4 15.2v-1.8c-1 2-3.5 2-5.6 2-3.8 0-6.5-.7-6.5-5.2 0-4.7 2.4-5.4 6.7-5.4 1.7 0 5 .2 5.4 1.7v-3.2c0-3.1-1.7-3.4-4.6-3.4-2 0-4.5 0-4.5 2.3v.6h-2.7v-.4c0-4.4 3-4.7 6.8-4.7 4.3 0 7.4.4 7.4 5.6v11.6h-2.4zm0-5.1c0-3.2-1.9-3.2-5.2-3.2-3.1 0-4.3.2-4.3 3 0 3.3 1.3 3.4 4.3 3.4 2.6 0 5.2-.1 5.2-3.2zm12.2-9.9c.9-2 3.4-2.3 5.3-2.3 4.4 0 6.5 1.2 6.4 5.9v11.3h-2.6v-11.5c0-3.1-1.2-3.6-4.1-3.6-4.2 0-5.1 1.3-5.1 5.2v10h-2.6v-17.1h2.6v2.1zm32.4 2.4h-2.7v-.7c0-1.7-1.3-1.7-4-1.7-3.2 0-4.8 0-4.8 2.1 0 3.1.8 2.8 3.5 3 4.4.3 8.4-.4 8.4 5.1 0 4.8-3.3 5-7.1 5-3.7 0-7.6-.2-7.6-4v-1.6h2.7v1.3c0 1.6 1 2 4.9 2 1.8 0 4.5.4 4.5-2.6 0-3.2-1.3-2.6-4.5-2.8-3.7-.3-7.4.1-7.4-4.7 0-4.9 2.8-5 7.4-5 3 0 6.7.1 6.7 4v.6zm9-2.4c1.1-1.9 3.4-2.3 5.6-2.3 6.2 0 6.7 3.6 6.7 8.7 0 6.8-1.7 8.7-6.7 8.7-2 0-4.5-.2-5.5-2.2h-.1v9.4h-2.6v-24.4h2.6v2.1zm0 6.5c0 4 .3 6.6 4.8 6.6 4 0 4.7-1.1 4.7-6.6 0-5.1-.4-6.7-4.7-6.7-4.8 0-4.8 2.1-4.8 6.7zm25.8-8.8c6.3 0 7.6 1.5 7.6 8.7 0 7.2-1.2 8.7-7.6 8.7-6.3 0-7.6-1.5-7.6-8.7 0-7.1 1.3-8.7 7.6-8.7zm0 15.4c4.6 0 4.9-.7 4.9-6.6 0-6-.3-6.7-4.9-6.7-4.6 0-4.9.7-4.9 6.7 0 5.9.3 6.6 4.9 6.6zm21.1-15.4c6.3 0 7.6 1.5 7.6 8.7 0 7.2-1.2 8.7-7.6 8.7-6.3 0-7.6-1.5-7.6-8.7.1-7.1 1.3-8.7 7.6-8.7zm0 15.4c4.6 0 4.9-.7 4.9-6.6 0-6-.3-6.7-4.9-6.7-4.6 0-4.9.7-4.9 6.7 0 5.9.4 6.6 4.9 6.6zm16.7-13.1c.9-2 3.4-2.3 5.3-2.3 4.4 0 6.5 1.2 6.4 5.9v11.3h-2.6v-11.5c0-3.1-1.2-3.6-4.1-3.6-4.2 0-5.1 1.3-5.1 5.2v10h-2.6v-17.1h2.6v2.1z" fill="#2A2C74"/></svg>