<svg xmlns="http://www.w3.org/2000/svg" viewBox="0 0 343 243.4" enable-background="new 0 0 343 243.4"><g fill="#373737"><path d="M0 198.7l39.8-24.1c7.7 13.6 14.7 25.1 31.4 25.1 16.1 0 26.2-6.3 26.2-30.7v-166.2h48.9v166.9c0 50.6-29.7 73.7-73 73.7-39.1 0-61.8-20.2-73.3-44.7"/><path d="M172.9 193.5l39.8-23.1c10.5 17.1 24.1 29.7 48.2 29.7 20.3 0 33.2-10.1 33.2-24.1 0-16.8-13.3-22.7-35.6-32.5l-12.2-5.2c-35.3-15-58.7-33.9-58.7-73.7 0-36.7 27.9-64.6 71.6-64.6 31.1 0 53.4 10.8 69.5 39.1l-38.1 24.4c-8.4-15-17.5-21-31.4-21-14.3 0-23.4 9.1-23.4 21 0 14.7 9.1 20.6 30 29.7l12.2 5.2c41.6 17.8 65 36 65 76.8 0 44-34.6 68.1-81 68.1-45.5.1-74.8-21.5-89.1-49.8"/></g></svg>