<svg xmlns="http://www.w3.org/2000/svg" viewBox="0 210 500 81" enable-background="new 0 210 500 81"><path fill="#373737" d="M308 236v-4.4l-5 .5v-5.6l-21 6v32.5h-3v-23h-21v14h-7v-23.1l-3.7-.2-5.3-4.2v-2.5h-4v2.1l-4.1 4.9h-3.9v15h-10v10h-3v22.1c-5 .8-6.6-8.1-6.6-8.1-.5 6.5-5.1 11-5.1 11h-8l-9.6 8h128.5l1.6-55h-10 .2zM500 276.5v-16.5h-3l-.8-1h-10.2v-20h-2.3l-1.1-5h-3.6v-3h-1v-1h-6v-2h-2v.7l.1 5.3h-2.8l-1.1 5h-2.2v5h-4v2h-4.8l-1.3 3h1.1v5h-1.9l-1.1-3h-3v-7h-22v-20h-9v-1h-1v1h-3v11h-3v-17h-17v-6h-4v3h-2v-5h-1v5.1l-3 .4v26.5h-2v-15.9l-24-.2v8.1h-3v3h-3v-5h-5v-4h-2v-5h-3v-6h-1c0-8-10.6-8-10.6 1h-3.8l-1.3 5h-2.3v13h-8.4l-1.6 3h-5v8.4c-5 .3-4.1 3.6-4.1 3.6h-5.9v3h-2.8l-1.3 8h-5.9v26.5l211.9-.2.1-11.8zM96 229v12h-3v-10.1l-23-.2v3.3h-3v2h-3v1h-5v-4h-2v1l-3-1v-5l-1.3-1c0-8-10.6-8-10.6 1l-3.8 1-1.1 4h-3.2v3h-7.5l-1.6 3h-4.9v8.4c-5 .3-4.2 3.6-4.2 3.6h-5.8v3h-2.9l-1.3 8h-5.8v27h230v-2h-1.2l-1.9-4h-.8l-1.3-1h-2.8l-1.7-2h-1.6l-1.1-2h-1.6l-1.3-1h-3.7v-17h-2.5l-.8-1h-9.7v-20h-2.5l-1.1-5h-3.4v-3h-2v-1h-6v-2h-1v.7l.3 5.3h-3.2l-1.1 5h-2v5h-4v2h-4.8l-1.3 3h1.1v5h-1.9l-1.1-3h-3v-7h-22v-18h-9v-3h-1v3h-3v9h-3v-7"/><path fill="#373737" d="M0 275h500v7h-500zM0 279h500v12h-500zM123 218.5M123 224.5M96 240.5M96 218.5"/></svg>