<svg xmlns="http://www.w3.org/2000/svg" viewBox="0 389 500 111" enable-background="new 0 389 500 111"><path fill="#373737" d="M308 439v-9.9l-5-3.5v-10.6h-21v58h-3v-23h-21v14h-7v-28.6l-3.7-.2-5.3-5.2v-2h-4v2.6l-4.1 5.4h-3.9v20h-10v10h-3v22.6c-5 .8-6.6-8.4-6.6-8.4-.5 6.5-5.1 10.8-5.1 10.8h-8l-9.6 8h128.5l1.6-60h-10 .2zM500 487v-17h-3l-.8-1h-10.2v-20h-2.3l-1.1-5h-3.6v-3h-1v-1h-6v-2h-2v1.2l.5 4.8h-3.2l-1.1 5h-2.2v5h-4v2h-4.8l-1.3 3h1.1v5h-1.9l-1.1-3h-3v-7h-22v-40h-9v-1h-1v1h-3v21h-3v-32h-17v-6h-4v3h-2v-11h-1v9.6l-3 2.4v51h-2v-20.4l-24-.2v7.6h-3v3h-3v-5h-5v-4h-2v-5h-3v-6h-1c0-8-10.6-8-10.6 1h-3.8l-1.3 5h-2.3v18h-8.4l-1.6 3h-5v8.9c-5 .3-4.1 3.1-4.1 3.1h-5.9v3h-2.8l-1.3 8h-5.9v27l211.9-.2.1-11.8zM96 424v27h-3v-19.6l-23-.2v7.8h-3v2h-3v-4h-5v-4h-2v-5h-3v-6h-1.3c0-8-10.6-8-10.6 1h-3.8l-1.1 5h-3.2v18h-7.5l-1.6 3h-4.9v8.9c-5 .3-4.2 3.1-4.2 3.1h-5.8v3h-2.9l-1.3 8h-5.8v27h230v-2h-1.2l-1.9-4h-.8l-1.3-1h-2.8l-1.7-2h-1.6l-1.1-2h-1.6l-1.3-1h-3.7v-17h-2.5l-.8-1h-9.7v-20h-2.5l-1.1-5h-3.4v-3h-2v-1h-6v-2h-1v1.2l.3 4.8h-3.2l-1.1 5h-2v5h-4v2h-4.8l-1.3 3h1.1v5h-1.9l-1.1-3h-3v-7h-22v-40h-9v-1h-1v1h-3v21h-3v-11"/><path fill="#373737" d="M0 485h500v7h-500zM0 489h500v12h-500z"/></svg>