<svg xmlns="http://www.w3.org/2000/svg" viewBox="-5.2 188 500 124" enable-background="new -5.2 188 500 124"><path fill="#373737" d="M493.4 310.5l-1.6-3h-.7l-1.1-1h-2.2l-1.4-2h-1.2l-.9-1h-1.1l-1-1h-2.2v-14h-2.7l-.6-1h-7.7v-16h-2.4l-.7-4h-2.9v-2h-1v-1h-2v-.5.5h-3v-2h-1v1.2l-.2 3.7h-2.5l-.7 4h-1.5v4h-3v2h-4.5l-1.1 2h1.6v4h-2.2l-.9-2h-1.9v-6h-18v-31.9h-7v-1h-1v1h-3v17h-2v-26h-13.9v-5h-3v2h-2v-8.9h-1v8l-2 1.9v41h-2.2v-16.2l-19-.1v6.3h-3v2h-2v-4h1.4-.7-4.7v-3h-1.9v-4h-2v-5h-1.5c0-6-8.6-6-8.6 1h-3l-1 4h-1.9v14.9h-7l-1.2 2h-3.9v7.3c-4 .2-3.5 2.7-3.5 2.7h-4.5v2h-2.5l-1 7h-6.5v3.1c-4-9.8-16.5-8.3-16.5-8.3 5.7 3.2 7.6 9.6 7.6 9.6-1.7-5.2-10.3-9.3-10.3-9.3h-30.7c-5.7 3-7.6 8.4-7.6 8.4-.7-4 4.3-8.4 4.3-8.4-10.7.9-13 9.9-13 9.9h-9.4v-7.2l-3-2.7s-3-.4-7.3-.2c-3.1.1-3 2.5-3 2.5l-.1 3.5-6.6 2.4c-4.2-.1-8-3.9-8-3.9.2-10.4-9.6-9.4-9.6-9.4l-2.9-2.6-1-5.1h-2.9l-.7 5.5-3.4 2v-18.5h-4.2l-2.2-8.9h-5.5v-14.9h-4.6l-3.7-4.8v-2.2h-1.4v2.4l-3.1 4.8h-4v23.7h-5v-13.9h-1v-2h-2v2h-2v-.7.7h-2v-1h-1v1h-8v20h-4.2l-.6-2h-1l-1 1.6-1-1.2v-.4h-2v4.8l-4 1.6v-13.4h-6.3c-.1-10.8.2-36.8 3.1-41 0 0 12.4-2.2 4.7-2.7 0 0-.2-1.4.5-2.2 1.2-.5 3.5-.7 5.2-.7 1.1-.1 2.1-1.1-1.4-1.1 0 0 .2-.6.1-1-.2-.2-12.3-4.8-12.3-4.8s.6-2 1.9-2.1c.7 0 1.1-.9-.7-.9 0 0 .2-.7-.7-1.2v-1 .4.2c-1-.1-1.1-.2-1.7-.2l-.2-.2v-.2c0-.6-.5-.9-1.1-.9h.1v-10.2s0-.6-1-.6c-1 .1-1 .6-1 .6v10.3h.2c-.6 0-1.2.2-1.2.9v.2l.2.2-1.2.2v-.2c0-.2-.2-.4-.5-.4s-.5.2-.5.4v.6c-1 .6-.6 1.2-.6 1.2-1.7.1-1.4.9-.7.9 1.2.1 1.9 2.1 1.9 2.1s-12.2 4.3-12.3 4.8c-.2.2.1 1 .1 1-3.5 0-2.5 1.1-1.4 1.1 1.7.1 4 .2 5.2.7.7.9.4 2.2.4 2.2-7.8.4 4.6 2.9 4.6 2.9 3.5 5.3 2.9 45.8 2.9 45.8h-12.1v-8.2l-4-2.9v-8.9h-17v47h-3v-18h-16.9v10.9h-5v-23l-3.4-.1-4.5-4.3v-1.7h-3.1v2.2l-3.5 4.8h-2.6v16h-8v8h-3v18.3c-4 .7-5.3-6.8-5.3-6.8-.2 5.2-4.3 8.6-4.3 8.6h-6.4l-7.8 6.5h500v-1.6h-1.4v-.3zm-336.6-68.8h-1.2c-.4 0-.7-.6-.7-1s.2-1 .7-1h1.2c.4 0 .7.6.7 1 .1.4-.3 1-.7 1zm11.3 0h-1.2c-.4 0-.7-.6-.7-1s.2-1 .7-1h1.2c.4 0 .7.6.7 1 .1.4-.3 1-.7 1z"/></svg>