<svg xmlns="http://www.w3.org/2000/svg" viewBox="-5.2 377.5 500.2 123.5" enable-background="new -5.2 377.5 500.2 123.5"><path fill="#373737" d="M493 499.5l-1.2-2.5h-.7l-1.1-1h-2.2l-1.4-2h-1.2l-.9-1h-1.1l-1-1h-2.2v-14h-2.7l-.6-1h-7.7v-16h-2.4l-.7-4h-2.9v-2h-1v-1h-2v-1 1h-3v-2h-1v.7l-.2 3.3h-2.5l-.7 4h-1.6v4h-3v2h-4.4l-1.1 2h1.5v4h-2.1l-.9-2h-2v-6h-18v-31h-7v-1h-1v1h-3v17h-2v-26h-14v-5h-3v2h-2v-9h-1v7.6l-2 1.9v41.5h-2v-16.7l-19-.1v6.8h-3v2h-2v-4h1.4-.7-4.7v-3h-2v-4h-2v-5h-1.4c0-6-8.6-6-8.6 1h-3l-1 4h-2v14h-6.9l-1.2 2h-3.9v7.7c-4 .2-3.5 2.3-3.5 2.3h-4.5v2h-2.5l-1 7h-6.5v3.5c-4-9.8-16.5-8.3-16.5-8.3 5.7 3.2 7.6 9.8 7.6 9.8-1.7-5.2-10.3-9-10.3-9h-30.7c-5.7 3-7.6 8.2-7.6 8.2-.7-4 4.3-8.7 4.3-8.7-10.7.9-13 9.6-13 9.6h-9.8v-6.8l-2.8-2.7s-2.9-.4-7.2-.2c-3.1.1-2.9 2.5-2.9 2.5l-.1 3.5-6.6 2.4c-4.2-.1-8-3.9-8-3.9.2-10.4-9.6-9.4-9.6-9.4l-2.9-2.4-1-5h-2.9l-.6 5.3-3.4 1.9v-18.3h-4.3l-2.2-9h-5.5v-15h-4.6l-3.4-4.9v-2.1h-2v2.3l-2.8 4.7h-4.2v24h-5v-14h-1v-2h-2v2h-2v-.8.8h-2v-1h-1v1h-8v20h-4l-.6-2h-1l-1.2 1.5-1.2-1.2v-.3h-2v4.7l-4 1.6v-13.3h-5.9c-.1-11 .2-36.9 3.1-41 0 0 12.4-2.2 4.7-2.7 0 0-.2-1.4.5-2.2 1.2-.5 3.5-.7 5.2-.7 1.1-.1 2.1-1.1-1.4-1.1 0 0 .2-.6.1-1-.2-.2-12.3-4.8-12.3-4.8s.6-2 1.9-2.1c.7 0 .8-.9-.9-.9 0 0 .1-.7-.9-1.2v-1 .4.2c-1-.1-.7-.2-1.2-.2l.2-.2v-.2c0-.6-.9-1.2-1.5-1.2h.5v-9.9s0-.6-1-.6c-1 .1-1 .6-1 .6v9.9h-.2c-.6 0-.8.6-.8 1.3v.2l.2.2-1.2.2v-.2c0-.2-.2-.4-.5-.4s-.5.2-.5.4v.6c-1 .6-.8 1.2-.8 1.2-1.7.1-1.5.9-.8.9 1.2.1 1.9 2.1 1.9 2.1s-12.2 4.3-12.3 4.8c-.2.2.1 1 .1 1-3.5 0-2.5 1.1-1.4 1.1 1.7.1 4 .2 5.2.7.7.9.4 2.2.4 2.2-7.8.4 4.6 2.9 4.6 2.9 3.5 5.3 2.9 45.8 2.9 45.8h-11.9v-8.2l-4-2.9v-9h-17v47h-3v-18h-17v11h-5v-23.1l-3.5-.1-4.5-4.3v-1.5h-3v2l-3.8 5h-2.2v16h-8v8h-3v18.1c-4 .7-5.5-6.8-5.5-6.8-.2 5.2-4.5 8.7-4.5 8.7h-6.4l-7.8 6h500.2v-1h-2v-.5zm-336.2-68.5h-1.2c-.4 0-.7-.6-.7-1s.2-1 .7-1h1.2c.4 0 .7.6.7 1 .1.4-.3 1-.7 1zm11.3 0h-1.2c-.4 0-.7-.6-.7-1s.2-1 .7-1h1.2c.4 0 .7.6.7 1 .1.4-.3 1-.7 1zM-5.2 501h500.2v1h-500.2z"/></svg>