<svg xmlns="http://www.w3.org/2000/svg" viewBox="0 186.8 500 110.5" enable-background="new 0 186.8 500 110.5"><path fill="#373737" d="M307.9 237.4v-9.9l-4.9-3.5v-11h-20.8v57.9h-3.6v-22.4h-21v13.5h-6.1v-28.2l-3.9-.2-5.5-5.2v-2.2h-3.8v2.8l-4.4 5.8h-3.6v19.9h-9.8v9.8h-3.6v22.5c-4.9.8-6.5-8.5-6.5-8.5-.5 6.5-5 10.6-5 10.6h-8l-9.6 8.2h128.5l1.6-59.9h-10zM500 285.2v-17.2h-3l-.8-1.3h-9.8v-19.7h-2.7l-1.1-4.9h-3.8v-2.5h-1.1v-1.3h-6.1v-2.5h-1.3v1.6l.2 4.6h-3.2l-1.1 4.9h-2.2v4.9h-3.6v2.5h-5.2l-1.3 2.5h1.6v4.9h-2.4l-1.1-2.5h-2.7v-7.4h-22.1v-39.4h-8.7v-1.4h-1.3v1.3h-3.6v21h-2.5v-31.7h-17v-6.1h-3.6v2.4h-2.5v-11h-1.3v9.9l-2.5 2.4v50.6h-2.5v-20l-23.3-.2v7.7h-3.6v2.5h-2.5v-4.9h-4.9v-3.6h-2.5v-5h-2.5v-6.3h-1.4c0-7.4-10.6-7.4-10.6 1.3h-3.8l-1.3 4.9h-2.7v18.4h-8l-1.6 2.5h-5.2v9c-4.9.3-3.9 3.3-3.9 3.3h-6v2.5h-2.7l-1.3 8.7h-5.8v26.6l211.8-.2.1-11.8zM96 222.1v27.4h-2.5v-19.9l-23.3-.2v7.7h-3.6v2.5h-2.6v-4.9h-4.9v-3.6h-2.5v-5h-2.5v-6.1h-1.4c0-7.4-10.6-7.4-10.6 1.3h-3.8l-1.1 4.9h-2.7v18.4h-8l-1.6 2.5h-5.2v9c-4.9.3-3.9 3.2-3.9 3.2h-6v2.5h-2.7l-1.3 8.7h-5.8v26.6h230.1v-2h-1.3l-1.9-3.6h-.8l-1.3-1.3h-2.8l-1.7-2.5h-1.6l-1.1-1.3h-1.6l-1.3-1.3h-3.2v-17.1h-3l-.8-1.3h-9.7v-19.7h-2.5l-1.1-4.9h-3.6v-2.5h-1.3v-1.3h-6.1v-2.5h-1.3v1.6l.2 4.6h-3.2l-1.1 4.9h-2.2v4.9h-3.6v2.5h-5l-1.3 2.5h1.6v4.9h-2.4l-1.1-2.5h-2.7v-7.4h-22.1v-39.4h-8.7v-1.3h-1.3v1.3h-3.6v21h-2.6v-11.5"/><path fill="#373737" d="M0 290.2h499.8v6.9h-499.8z"/></svg>