<svg xmlns="http://www.w3.org/2000/svg" viewBox="49 164 402.1 100" enable-background="new 49 164 402.1 100" width="402" height="100"><path fill="#373737" d="M449.4 262l-1-2h-.6l-.9-.8h-1.8l-1.1-1.6h-1l-.7-.8h-.9l-.8-.8h-1.6v-11.3h-2.2l-.5-.8h-6.2v-12.9h-1.9l-.6-3.2h-2.3v-1.6h-.8v-.8h-1.6v-.8.8h-2.4v-1.6h-.8v.6l-.2 2.7h-2l-.6 3.2h-1.3v3.2h-2.4v1.6h-3.5l-.9 1.6h1.2v3.2h-1.7l-.7-1.6h-1.6v-4.8h-14.5v-24.9h-5.6v-.8h-.8v.8h-2.4v13.7h-1.6v-20.9h-11.3v-4h-2.4v1.6h-1.6v-7.2h-.8v6.1l-1.6 1.5v33.4h-1.6v-13.4l-15.3-.1v5.5h-2.4v1.6h-1.6v-3.2h1.1-.6-3.8v-2.4h-1.6v-3.2h-1.6v-4h-1c0-4.8-6.9-4.8-6.9.8h-2.4l-.8 3.2h-1.6v11.3h-5.5l-1 1.6h-3.1v6.2c-3.2.2-2.8 1.8-2.8 1.8h-3.6v1.6h-2l-.8 5.6h-5.2v2.8c-3.2-7.9-13.3-6.7-13.3-6.7 4.6 2.6 6.1 7.9 6.1 7.9-1.4-4.2-8.3-7.2-8.3-7.2h-24.8c-4.6 2.4-6.1 6.6-6.1 6.6-.6-3.2 3.5-7 3.5-7-8.6.7-10.5 7.7-10.5 7.7h-7.9v-5.5c0-2.2-2.3-2.2-2.3-2.2s-2.3-.3-5.8-.2c-2.5.1-2.3 2-2.3 2l-.1 2.8-5.3 1.9c-3.4-.1-6.4-3.1-6.4-3.1.2-8.4-7.7-7.6-7.7-7.6l-2.3-1.9-.8-4h-2.3l-.5 4.3-2.7 1.5v-14.7h-3.5l-1.8-7.2h-4.4v-12.1h-3.7l-2.7-3.9v-1.7h-1.6v1.8l-2.3 3.8h-3.4v19.3h-4v-11.3h-.8v-1.6h-1.6v1.6h-1.6v-.6.6h-1.6v-.8h-.8v.8h-6.4v16.1h-3.3l-.5-1.6h-.8l-1 1.2-1-1v-.2h-1.6v3.8l-3.2 1.3v-10.7h-4.7c-.1-8.8.2-29.7 2.5-33 0 0 10-1.8 3.8-2.2 0 0-.2-1.1.4-1.8 1-.4 2.8-.6 4.2-.6.9-.1 1.7-.9-1.1-.9 0 0 .2-.5.1-.8-.2-.2-9.9-3.9-9.9-3.9s.5-1.6 1.5-1.7c.6 0 .6-.7-.7-.7 0 0 .1-.6-.7-1v-.8.3.2c-.8-.1-.6-.2-1-.2l.2-.2v-.2c0-.5-.7-1-1.2-1h.4v-8s0-.5-.8-.5c-.8.1-.8.5-.8.5v8h-.2c-.5 0-.6.5-.6 1v.2l.2.2-1 .2v-.2c0-.2-.2-.3-.4-.3s-.4.2-.4.3v.5c-.8.5-.6 1-.6 1-1.4.1-1.2.7-.6.7 1 .1 1.5 1.7 1.5 1.7s-9.8 3.5-9.9 3.9c-.2.2.1.8.1.8-2.8 0-2 .9-1.1.9 1.4.1 3.2.2 4.2.6.6.7.3 1.8.3 1.8-6.3.3 3.7 2.3 3.7 2.3 2.8 4.3 2.3 36.8 2.3 36.8h-9.6v-6.6l-3.2-2.3v-7.2h-13.8v37.8h-2.4v-14.5h-13.7v8.8h-4v-18.6l-2.8-.1-3.6-3.5v-1.2h-2.4v1.6l-3.1 4h-1.8v12.9h-6.4v6.4h-2.4v14.5c-3.2.6-4.4-5.5-4.4-5.5-.2 4.2-3.6 7-3.6 7h-5.1l-6.3 4.8h402v-.8h-1.6v-.1zm-270.2-55h-1c-.3 0-.6-.5-.6-.8 0-.3.2-.8.6-.8h1c.3 0 .6.5.6.8 0 .3-.3.8-.6.8zm9.1 0h-1c-.3 0-.6-.5-.6-.8 0-.3.2-.8.6-.8h1c.3 0 .6.5.6.8 0 .3-.3.8-.6.8zM49 263.2h402.1v.8h-402.1z"/></svg>